<?xml version="1.0" encoding="UTF-8" standalone="no"?>
<!-- Created with Inkscape (http://www.inkscape.org/) -->

<svg
   width="210mm"
   height="297mm"
   viewBox="0 0 210 297"
   version="1.1"
   id="svg5"
   inkscape:version="1.2.2 (b0a8486541, 2022-12-01)"
   sodipodi:docname="Zeichnung.svg"
   xmlns:inkscape="http://www.inkscape.org/namespaces/inkscape"
   xmlns:sodipodi="http://sodipodi.sourceforge.net/DTD/sodipodi-0.dtd"
   xmlns="http://www.w3.org/2000/svg"
   xmlns:svg="http://www.w3.org/2000/svg">
  <sodipodi:namedview
     id="namedview7"
     pagecolor="#505050"
     bordercolor="#ffffff"
     borderopacity="1"
     inkscape:showpageshadow="0"
     inkscape:pageopacity="0"
     inkscape:pagecheckerboard="1"
     inkscape:deskcolor="#505050"
     inkscape:document-units="mm"
     showgrid="false"
     inkscape:zoom="5.2560325"
     inkscape:cx="216.22773"
     inkscape:cy="288.62074"
     inkscape:window-width="3748"
     inkscape:window-height="1996"
     inkscape:window-x="40"
     inkscape:window-y="112"
     inkscape:window-maximized="0"
     inkscape:current-layer="layer1" />
  <defs
     id="defs2">
    <inkscape:path-effect
       effect="spiro"
       id="path-effect1425"
       is_visible="true"
       lpeversion="1" />
    <inkscape:path-effect
       effect="spiro"
       id="path-effect1421"
       is_visible="true"
       lpeversion="1" />
    <inkscape:path-effect
       effect="spiro"
       id="path-effect1417"
       is_visible="true"
       lpeversion="1" />
    <inkscape:path-effect
       effect="spiro"
       id="path-effect1413"
       is_visible="true"
       lpeversion="1" />
    <inkscape:path-effect
       effect="spiro"
       id="path-effect1409"
       is_visible="true"
       lpeversion="1" />
    <inkscape:path-effect
       effect="spiro"
       id="path-effect1405"
       is_visible="true"
       lpeversion="1" />
    <inkscape:path-effect
       effect="spiro"
       id="path-effect1401"
       is_visible="true"
       lpeversion="1" />
    <inkscape:path-effect
       effect="spiro"
       id="path-effect1397"
       is_visible="true"
       lpeversion="1" />
    <inkscape:path-effect
       effect="spiro"
       id="path-effect1393"
       is_visible="true"
       lpeversion="1" />
    <inkscape:path-effect
       effect="spiro"
       id="path-effect1389"
       is_visible="true"
       lpeversion="1" />
    <inkscape:path-effect
       effect="spiro"
       id="path-effect1385"
       is_visible="true"
       lpeversion="1" />
    <inkscape:path-effect
       effect="spiro"
       id="path-effect1381"
       is_visible="true"
       lpeversion="1" />
    <inkscape:path-effect
       effect="spiro"
       id="path-effect1377"
       is_visible="true"
       lpeversion="1" />
    <inkscape:path-effect
       effect="spiro"
       id="path-effect1373"
       is_visible="true"
       lpeversion="1" />
    <inkscape:path-effect
       effect="spiro"
       id="path-effect1369"
       is_visible="true"
       lpeversion="1" />
    <inkscape:path-effect
       effect="spiro"
       id="path-effect1365"
       is_visible="true"
       lpeversion="1" />
    <inkscape:path-effect
       effect="spiro"
       id="path-effect1361"
       is_visible="true"
       lpeversion="1" />
    <inkscape:path-effect
       effect="spiro"
       id="path-effect1357"
       is_visible="true"
       lpeversion="1" />
    <inkscape:path-effect
       effect="spiro"
       id="path-effect1353"
       is_visible="true"
       lpeversion="1" />
    <inkscape:path-effect
       effect="spiro"
       id="path-effect1349"
       is_visible="true"
       lpeversion="1" />
    <inkscape:path-effect
       effect="spiro"
       id="path-effect1345"
       is_visible="true"
       lpeversion="1" />
    <inkscape:path-effect
       effect="spiro"
       id="path-effect1341"
       is_visible="true"
       lpeversion="1" />
    <inkscape:path-effect
       effect="spiro"
       id="path-effect1337"
       is_visible="true"
       lpeversion="1" />
    <inkscape:path-effect
       effect="spiro"
       id="path-effect1333"
       is_visible="true"
       lpeversion="1" />
    <inkscape:path-effect
       effect="spiro"
       id="path-effect1329"
       is_visible="true"
       lpeversion="1" />
    <inkscape:path-effect
       effect="spiro"
       id="path-effect1325"
       is_visible="true"
       lpeversion="1" />
    <inkscape:path-effect
       effect="spiro"
       id="path-effect1321"
       is_visible="true"
       lpeversion="1" />
    <inkscape:path-effect
       effect="spiro"
       id="path-effect1317"
       is_visible="true"
       lpeversion="1" />
    <inkscape:path-effect
       effect="spiro"
       id="path-effect254"
       is_visible="true"
       lpeversion="1" />
  </defs>
  <g
     inkscape:label="Ebene 1"
     inkscape:groupmode="layer"
     id="layer1">
    <path
       style="fill:none;stroke-width:0.9;stroke:#000000;stroke-opacity:1;stroke-dasharray:none"
       d="m 53.844472,48.218539 c -6.077267,1.226779 -11.629041,4.881861 -15.157931,9.979419 -1.383683,1.99876 -2.458955,4.192988 -3.45884,6.408806 -1.628082,3.607949 -3.079198,7.326107 -3.814923,11.215407 -1.52681,8.071257 0.229239,16.750032 4.933957,23.483676 1.066187,1.525983 2.286634,2.963383 3.765624,4.093853 1.47899,1.13047 3.23281,1.94506 5.084969,2.13184 0.438276,0.0442 0.88393,0.0531 1.316389,-0.0307 0.43246,-0.0838 0.85309,-0.2648 1.176029,-0.56438 0.286149,-0.26545 0.484814,-0.61219 0.641188,-0.96981 0.156374,-0.35762 0.274643,-0.73082 0.426993,-1.09017 0.396127,-0.93436 1.035199,-1.7779 1.880788,-2.33908 0.845589,-0.561176 1.903129,-0.823601 2.900579,-0.636424 0.673452,0.126374 1.301331,0.450054 1.834082,0.880964 0.53275,0.43091 0.973944,0.96676 1.346658,1.54173 0.745427,1.14995 1.220666,2.45087 1.854926,3.66567 0.891943,1.70835 2.097568,3.24462 2.90776,4.99323 0.405096,0.8743 0.709481,1.80377 0.802008,2.76291 0.09253,0.95914 -0.03444,1.9511 -0.454374,2.81837 -0.387757,0.80081 -1.004921,1.46422 -1.621936,2.10527 -0.617015,0.64106 -1.250979,1.28336 -1.684313,2.06046 -0.436024,0.78192 -0.651297,1.66991 -1.070628,2.46091 -0.209665,0.3955 -0.473064,0.76823 -0.815648,1.05636 -0.342584,0.28812 -0.769496,0.48781 -1.216527,0.51111 -0.373947,0.0195 -0.749618,-0.0852 -1.073786,-0.27267 -0.324168,-0.18743 -0.598149,-0.45514 -0.815884,-0.75978 -0.43547,-0.60929 -0.643251,-1.34942 -0.806194,-2.08039 -1.388903,-6.23068 -0.04606,-12.76968 2.13636,-18.76864 3.00158,-8.250645 7.582523,-15.890914 13.174162,-22.659681 2.647166,-3.204436 5.522222,-6.220577 8.596268,-9.018101"
       id="path252"
       inkscape:path-effect="#path-effect254"
       inkscape:original-d="m 53.844472,48.218539 c -7.373471,0.251804 -11.296168,3.670141 -15.157931,9.979419 -1.267296,2.070484 -2.532734,4.16487 -3.45884,6.408806 -1.506476,3.650171 -3.402954,7.288131 -3.814923,11.215407 -0.771798,7.357499 0.284898,17.094335 4.933957,23.483676 2.746918,3.775163 4.900539,5.730703 8.850593,6.225693 0.745646,0.0934 1.93924,0.15166 2.492418,-0.5951 0.460412,-0.62153 0.644234,-1.41302 1.068181,-2.05998 1.08967,-1.66287 2.587085,-2.83188 4.781367,-2.975504 2.541849,-0.166373 4.217718,4.567034 5.035666,6.088364 1.681319,3.12713 4.279498,6.76508 3.255394,10.57451 -0.509775,1.89625 -2.04802,2.83354 -3.306249,4.16573 -0.987504,1.04555 -1.858214,3.36333 -3.102803,4.02838 -1.538444,0.82208 -2.60177,-2.3507 -2.695864,-3.11284 -0.879337,-7.12235 -0.378211,-11.78278 2.13636,-18.76864 3.277555,-9.105543 7.054228,-15.281082 13.174162,-22.659681 2.651252,-3.196521 5.730846,-6.012069 8.596268,-9.018101" />
    <path
       style="fill:none;stroke:#000000;stroke-width:0.899999;stroke-dasharray:none;stroke-opacity:1"
       d="m 12.073245,21.962925 c 1.815777,6.389885 5.463893,12.247914 10.397581,16.696105 4.933688,4.44819 11.136987,7.472152 17.680165,8.618664 0.855755,0.149948 1.719574,0.269107 2.555179,0.506944 0.835605,0.237837 1.651119,0.602576 2.29542,1.185396 0.6443,0.582819 1.10343,1.403948 1.123589,2.272507 0.01008,0.43428 -0.09037,0.873024 -0.304604,1.250916 -0.214238,0.377892 -0.543776,0.692482 -0.939072,0.872598 -0.435226,0.19831 -0.936353,0.228835 -1.404948,0.133092 -0.468595,-0.09574 -0.906525,-0.312409 -1.298674,-0.586209 -0.784299,-0.547601 -1.385811,-1.312603 -2.077745,-1.973072 -1.73783,-1.658802 -4.013867,-2.628982 -6.292206,-3.391116 -2.27834,-0.762134 -4.62705,-1.356971 -6.780222,-2.422581 -1.749389,-0.865777 -3.33875,-2.02784 -5.084754,-2.900424 -0.873003,-0.436292 -1.787589,-0.800211 -2.742206,-1.003161 -0.954618,-0.202949 -1.952207,-0.241577 -2.905666,-0.03325 -0.39462,0.08622 -0.790181,0.215026 -1.192711,0.181426 -0.201265,-0.0168 -0.401914,-0.07621 -0.566926,-0.19266 -0.165012,-0.116452 -0.291646,-0.293271 -0.325866,-0.492316 -0.02379,-0.138406 -0.0028,-0.282198 0.04569,-0.414001 0.04848,-0.131804 0.123596,-0.252452 0.208634,-0.364215 0.324185,-0.426066 0.790312,-0.725163 1.280108,-0.941327 0.489797,-0.216165 1.008714,-0.356962 1.517515,-0.523542 1.650247,-0.540286 3.195604,-1.352408 4.781343,-2.059977 4.06586,-1.814217 8.434123,-2.948537 12.868985,-3.341729"
       id="path1315"
       inkscape:path-effect="#path-effect1317"
       inkscape:original-d="m 12.073245,21.962925 c 13.226741,1.700481 2.489675,0.109065 28.077746,25.314769 1.830922,1.803561 4.766199,3.518572 4.730512,6.088361 -0.02482,1.787062 -3.15862,-1.677257 -4.781367,-2.426189 -4.33006,-1.998408 -8.659313,-4.006088 -13.072428,-5.813697 -3.526286,-1.444363 -7.131926,-2.689503 -10.732626,-3.936836 -0.675747,-0.23409 -1.499625,-0.09346 -2.085503,-0.50355 -0.223577,-0.156498 0.03442,-0.616596 0.254325,-0.778216 0.848196,-0.623396 1.843156,-1.020961 2.797623,-1.464869 1.573551,-0.731832 3.148128,-1.473252 4.781343,-2.059977 6.925599,-2.48799 6.573119,-2.197623 12.868985,-3.341729" />
    <path
       style="fill:none;stroke:#000000;stroke-width:0.899999;stroke-dasharray:none;stroke-opacity:1"
       d="m 67.872704,15.325234 c 0.381313,14.858467 8.322222,29.327562 20.651396,37.62882 0.646226,0.435105 1.304983,0.855308 1.904148,1.353229 0.599165,0.497922 1.141644,1.080448 1.498065,1.773188 0.356421,0.69274 0.515549,1.505036 0.33909,2.263842 -0.08823,0.379403 -0.259584,0.740866 -0.508542,1.040451 -0.248958,0.299585 -0.576223,0.53588 -0.943814,0.664751 -0.501099,0.175676 -1.048803,0.147689 -1.576829,0.09156 -1.150295,-0.122277 -2.283996,-0.367401 -3.407981,-0.640876 -5.06431,-1.232188 -10.091193,-3.111381 -14.089756,-6.454585 -0.793774,-0.663675 -1.545261,-1.383442 -2.404236,-1.960247 -0.858974,-0.576806 -1.85112,-1.010647 -2.885779,-1.015273 -0.345136,-0.0015 -0.688475,0.04451 -1.032687,0.0698 -0.344212,0.02529 -0.69469,0.02929 -1.029476,-0.05461 -0.334787,-0.0839 -0.655526,-0.263871 -0.853163,-0.546821 -0.09882,-0.141475 -0.164928,-0.306842 -0.182704,-0.478494 -0.01778,-0.171651 0.01385,-0.349287 0.09696,-0.500523 0.126201,-0.22964 0.360305,-0.38336 0.606659,-0.47264 0.246354,-0.08928 0.508734,-0.122402 0.766727,-0.168234 2.209564,-0.392522 4.122211,-1.720963 5.951257,-3.021285 3.657655,-2.600333 7.375701,-5.264447 11.648215,-6.637691 4.03763,-1.29775 8.378873,-1.376812 12.449823,-2.565923 2.035474,-0.594555 4.014486,-1.480172 5.642834,-2.838533 1.62834,-1.358362 2.88805,-3.221707 3.27086,-5.307399 0.45705,-2.490187 -0.40695,-5.15483 -2.13636,-7.003904 -1.685684,-1.802326 -4.040945,-2.805183 -6.00214,-4.303055 -0.560001,-0.427703 -1.094414,-0.900313 -1.723594,-1.217588 -0.31459,-0.158637 -0.652095,-0.276896 -1.001652,-0.320972 -0.349557,-0.04408 -0.711894,-0.01195 -1.038795,0.119464 -0.465149,0.186983 -0.838383,0.570064 -1.058976,1.020247 -0.220593,0.450184 -0.295494,0.963154 -0.264255,1.463504 0.06248,1.000702 0.528025,1.925032 0.96717,2.826397 2.849219,5.848152 4.945979,12.027156 7.32464,18.081981 1.468392,3.73775 3.046122,7.432545 4.730492,11.078067"
       id="path1319"
       inkscape:path-effect="#path-effect1321"
       inkscape:original-d="m 67.872704,15.325234 c 15.407214,0.513583 2.331546,-0.322864 20.651396,37.62882 1.080347,2.238066 2.043906,4.622395 2.288947,7.095461 0.05191,0.523928 -1.053502,0.149228 -1.576829,0.09156 -1.14895,-0.126614 -2.336797,-0.206502 -3.407981,-0.640876 -4.787316,-1.94129 -9.444556,-4.194255 -14.089756,-6.454585 -1.819203,-0.885216 -3.513743,-2.007036 -5.290015,-2.97552 -0.953273,-0.519752 -3.005223,-1.40231 -3.001071,-1.510649 0.01934,-0.504814 0.92153,-0.414956 1.373386,-0.640874 1.989894,-0.994904 3.992382,-1.966616 5.951257,-3.021285 0.385482,-0.207547 11.412352,-6.52632 11.648215,-6.637691 4.142753,-1.956163 16.906292,-6.090098 21.363517,-10.711855 3.21539,-3.334086 0.70832,-4.812451 -2.13636,-7.003904 -1.950173,-1.502348 -3.974738,-2.906682 -6.00214,-4.303055 -0.368823,-0.254028 -2.74407,-2.162189 -3.764041,-1.419096 -0.802942,0.584977 -0.543243,4.508416 -0.356061,5.310148 1.844128,7.898679 3.810138,10.355737 7.32464,18.081981 1.662542,3.654904 3.124112,7.398139 4.730492,11.078067" />
    <path
       style="fill:none;stroke:#000000;stroke-width:0.899999;stroke-dasharray:none;stroke-opacity:1"
       d="m 118.83997,34.093869 c 0.0369,-0.415998 -0.11569,-0.845109 -0.40694,-1.144423 -0.17686,-0.181755 -0.40137,-0.31581 -0.64375,-0.390414 -0.24238,-0.0746 -0.5021,-0.09011 -0.75254,-0.05019 -0.50088,0.07985 -0.95443,0.382989 -1.25354,0.792614 -0.2991,0.409624 -0.44867,0.918673 -0.46075,1.425732 -0.0121,0.507059 0.10865,1.012065 0.30987,1.477645 0.40245,0.931158 1.10868,1.691674 1.79725,2.436584 0.68857,0.744909 1.38663,1.515745 1.76646,2.456356 0.2751,0.681249 0.36984,1.421054 0.4224,2.153867 0.0526,0.732813 0.0657,1.470514 0.18798,2.194959 0.25444,1.5072 0.99252,2.928929 2.07879,4.004296 1.08627,1.075366 2.51537,1.799062 4.02506,2.038287"
       id="path1323"
       inkscape:path-effect="#path-effect1325"
       inkscape:original-d="m 118.83997,34.093869 c -0.13565,-0.381473 -0.40323,-1.549281 -0.40694,-1.144423 -0.12524,13.633727 -0.12564,3.07004 0.763,8.148328 0.25231,1.441907 0.0967,2.978107 0.61038,4.348826 1.25459,3.347641 3.33246,4.113768 6.10385,6.042583" />
    <path
       style="fill:none;stroke:#000000;stroke-width:0.899999;stroke-dasharray:none;stroke-opacity:1"
       d="m 145.29003,14.180802 0.66124,35.98085"
       id="path1327"
       inkscape:path-effect="#path-effect1329"
       inkscape:original-d="m 145.29003,14.180802 c -13.85351,0 -1.87334,-0.608925 0.66124,35.98085" />
    <path
       style="fill:none;stroke:#000000;stroke-width:0.899999;stroke-dasharray:none;stroke-opacity:1"
       d="m 107.7004,64.077913 c 0.0278,-0.204355 -0.0155,-0.417692 -0.12069,-0.595066 -0.10523,-0.177374 -0.27171,-0.317616 -0.46438,-0.39118 -0.19267,-0.07356 -0.41026,-0.07996 -0.60692,-0.01785 -0.19666,0.06211 -0.3711,0.192325 -0.48657,0.363208 -0.10185,0.150729 -0.15678,0.327726 -0.20345,0.50355 -0.32773,1.234597 -0.3116,2.530551 -0.45779,3.799512 -0.32837,2.850446 -1.47,5.533102 -2.54328,8.194106 -0.63015,1.562346 -1.24113,3.133213 -1.93289,4.669274 -1.167166,2.591707 -2.559745,5.074429 -3.865774,7.59901 -0.618776,1.196106 -1.225487,2.422976 -1.464511,3.748276 -0.119512,0.662651 -0.144368,1.346012 -0.02963,2.009505 0.11474,0.663493 0.372182,1.30697 0.782019,1.841219 0.464405,0.605381 1.113687,1.056024 1.821447,1.341041 0.70776,0.285018 1.473039,0.409795 2.235727,0.431324 1.52538,0.04306 3.02892,-0.317264 4.53909,-0.536382 6.72438,-0.975672 13.57579,0.849519 20.34622,0.274666 0.89617,-0.07609 1.80647,-0.193484 2.68799,-0.01507 0.44076,0.08921 0.87031,0.254128 1.23488,0.517414 0.36456,0.263285 0.66168,0.628726 0.80762,1.054083 0.0606,0.176779 0.0951,0.362541 0.10173,0.549317"
       id="path1331"
       inkscape:path-effect="#path-effect1333"
       inkscape:original-d="m 107.7004,64.077913 c -0.8379,0.732385 -1.0834,-0.707837 -1.67856,-0.64089 -0.1799,0.02024 -0.15738,0.328478 -0.20345,0.50355 -0.53876,2.047319 0.007,0.874292 -0.45779,3.799512 -0.48019,3.025079 -1.38816,5.393981 -2.54328,8.194106 -0.64238,1.557213 -1.24684,3.130796 -1.93289,4.669274 -1.153048,2.585751 -2.644719,5.04341 -3.865774,7.59901 -0.952738,1.994025 -2.616692,5.593202 -0.71212,7.599 1.700082,1.790441 6.460164,1.235983 8.596264,1.235983 6.77112,0 13.58641,-0.286872 20.34622,0.274666 0.82008,0.06812 4.33398,0.664366 4.73049,1.556428 0.0756,0.170166 0.0571,0.368527 0.10173,0.549317" />
    <path
       style="fill:none;stroke:#000000;stroke-width:0.899999;stroke-dasharray:none;stroke-opacity:1"
       d="m 85.777381,132.69786 c -1.688959,-2.64552 -4.471371,-4.56883 -7.543026,-5.21403 -3.071654,-0.64521 -6.392757,-0.004 -9.003399,1.73844 -2.610642,1.74238 -4.477001,4.56331 -5.059637,7.64745 -0.582636,3.08413 0.125999,6.39151 1.921086,8.9662 1.065536,1.5283 2.501045,2.80141 4.160765,3.64781 1.659719,0.84639 3.541714,1.26128 5.40197,1.1588 2.210669,-0.12178 4.336499,-0.96095 6.221272,-2.12263 1.884773,-1.16169 3.552041,-2.64031 5.172594,-4.14885 1.053493,-0.98068 2.096413,-1.98247 2.974487,-3.12289 0.878074,-1.14042 1.591057,-2.43142 1.908615,-3.83525 0.247813,-1.0955 0.248731,-2.24642 0,-3.34172 -0.378131,-1.66511 -1.33815,-3.18538 -2.652345,-4.27555 -1.314195,-1.09016 -2.971773,-1.75013 -4.672298,-1.90437 -0.616607,-0.0559 -1.255268,-0.0443 -1.831152,0.1831 -0.535903,0.21157 -0.996131,0.60955 -1.282828,1.10931 -0.286697,0.49976 -0.397934,1.09794 -0.310059,1.66735 0.08787,0.56942 0.374271,1.10623 0.798292,1.49631 0.424022,0.39008 0.982816,0.63079 1.557569,0.67096"
       id="path1335"
       inkscape:path-effect="#path-effect1337"
       inkscape:original-d="m 85.777381,132.69786 c 7.380317,-10.4548 -15.794114,6.27545 -19.684976,13.13806 -1.759572,3.10348 6.083345,4.01822 9.562735,4.80661 2.962865,0.67134 10.511414,-5.53492 11.393866,-6.27148 1.975374,-1.64881 4.235637,-4.3272 4.883102,-6.95814 0.266184,-1.08163 0.357404,-2.28671 0,-3.34172 -1.433722,-4.23213 -3.181453,-5.0326 -7.324643,-6.17992 -0.59118,-0.1637 -1.268637,-0.0616 -1.831152,0.1831 -2.709257,1.17848 -0.131588,3.64161 0.762974,4.94393" />
    <path
       style="fill:none;stroke:#000000;stroke-width:0.899999;stroke-dasharray:none;stroke-opacity:1"
       d="m 136.23597,123.31355 c -1.56632,-2.37031 -4.00651,-4.14875 -6.74256,-4.91407 -2.73605,-0.76532 -5.74483,-0.51105 -8.31364,0.70258 -1.81031,0.85528 -3.37563,2.15111 -4.83222,3.52483 -2.04393,1.92765 -3.93548,4.06386 -5.23707,6.55372 -1.30158,2.48986 -1.98367,5.36839 -1.52804,8.14074 0.35158,2.13922 1.35777,4.12446 2.59412,5.90527 4.33941,6.25038 11.65547,10.18774 19.22718,10.94074 2.02589,0.20147 4.10681,0.18562 6.053,-0.412 1.70466,-0.52346 3.25015,-1.47683 4.65325,-2.57737 1.4031,-1.10054 2.67888,-2.35233 3.99389,-3.55676 1.43821,-1.31727 2.935,-2.58957 4.14586,-4.11845 1.21085,-1.52888 2.13306,-3.36298 2.21231,-5.31166 0.0789,-1.94063 -0.68014,-3.82729 -1.67856,-5.49326 -1.31475,-2.1938 -3.13914,-4.17356 -5.49346,-5.17282 -1.60856,-0.68273 -3.42088,-0.87651 -5.13743,-0.54931"
       id="path1339"
       inkscape:path-effect="#path-effect1341"
       inkscape:original-d="m 136.23597,123.31355 c -5.01874,-1.40383 -9.84793,-4.03167 -15.0562,-4.21149 -1.99255,-0.0688 -3.3315,2.21228 -4.83222,3.52483 -3.50705,3.06731 -7.22502,9.93456 -6.76511,14.69446 0.21172,2.19136 1.34045,4.15828 2.59412,5.90527 4.75506,6.62614 11.05778,10.64187 19.22718,10.94074 1.38247,0.0506 4.51757,0.27891 6.053,-0.412 4.06208,-1.82787 5.65152,-3.11665 8.64714,-6.13413 1.95277,-1.96702 5.78312,-6.73893 6.35817,-9.43011 0.37392,-1.74984 -0.89733,-4.09863 -1.67856,-5.49326 -1.36066,-2.42901 -2.52553,-4.82442 -5.49346,-5.17282 -0.61449,-0.0721 -5.13743,-0.16571 -5.13743,-0.54931" />
    <path
       style="fill:none;stroke:#000000;stroke-width:0.899999;stroke-dasharray:none;stroke-opacity:1"
       d="m 85.370441,180.62654 c -2.172508,-0.19147 -4.393215,0.19364 -6.374396,1.10544 -1.98118,0.9118 -3.718096,2.3481 -4.985706,4.12282 -1.267609,1.77472 -2.062879,3.8836 -2.282772,6.05342 -0.219893,2.16981 0.136118,4.39537 1.021906,6.38832 0.885788,1.99294 2.299234,3.74851 4.057207,5.03924 1.757972,1.29073 3.856266,2.11354 6.023018,2.36182 2.166752,0.24827 4.396779,-0.0786 6.401149,-0.9382 2.00437,-0.85963 3.778289,-2.24997 5.09192,-3.9909 2.519012,-3.33839 3.226919,-7.80153 2.596687,-11.93591 -0.630231,-4.13438 -2.485675,-7.98888 -4.682168,-11.54777 -0.756769,-1.22616 -1.5606,-2.43097 -2.528589,-3.49829 -0.967989,-1.06732 -2.109068,-1.99793 -3.422668,-2.59007 -1.395494,-0.62906 -2.986759,-0.85791 -4.483327,-0.53635 -1.496567,0.32156 -2.883378,1.21388 -3.706024,2.50476 -0.566159,0.88841 -0.855266,1.9327 -0.958011,2.98115 -0.102745,1.04845 -0.0263,2.10634 0.0933,3.153 0.02848,0.24925 0.06211,0.50642 0.190423,0.722 0.06415,0.10779 0.152088,0.20305 0.260959,0.26536 0.10887,0.0623 0.239412,0.0899 0.362447,0.0655 0.107613,-0.0214 0.203415,-0.08 0.299891,-0.13225 0.09648,-0.0522 0.200834,-0.1001 0.310495,-0.0966 0.09815,0.003 0.194114,0.0498 0.257078,0.12519 0.06296,0.0754 0.0919,0.17809 0.07751,0.27523 -0.01439,0.0971 -0.07187,0.18708 -0.153969,0.24094 -0.0821,0.0539 -0.187499,0.0708 -0.28233,0.0453"
       id="path1343"
       inkscape:path-effect="#path-effect1345"
       inkscape:original-d="m 85.370441,180.62654 c -9.128003,-10.98577 1.660552,21.04338 8.952326,20.14196 7.799333,-0.96416 -0.670407,-15.75343 -2.085481,-23.48368 -0.339595,-1.85514 -3.686532,-5.62637 -5.951257,-6.08836 -2.363832,-0.4822 -6.268807,0.12477 -8.189351,1.96841 -0.758566,0.72819 -1.249003,5.01978 -0.864709,6.13415 0.01148,0.0333 0.66162,1.05287 0.813829,1.05287 0.217297,0 0.540087,-0.43449 0.610386,-0.22888 0.07486,0.21894 -0.06781,0.45777 -0.101711,0.68665" />
    <path
       style="fill:none;stroke:#000000;stroke-width:0.899999;stroke-dasharray:none;stroke-opacity:1"
       d="m 146.20559,181.03855 c -5.70743,-3.56028 -12.95536,-4.54664 -19.40664,-2.64103 -6.45128,1.90562 -11.99995,6.67193 -14.85681,12.76198 -2.85685,6.09005 -2.97496,13.40384 -0.31625,19.58297 2.65871,6.17913 8.05058,11.12212 14.43696,13.23506 6.20688,2.05356 13.05841,1.46533 19.27803,-0.54933 4.37357,-1.41669 8.55522,-3.54357 12.03118,-6.55236 3.47597,-3.00879 6.22389,-6.93022 7.50118,-11.34652 1.71675,-5.93576 0.62523,-12.58365 -2.74674,-17.76152 -1.48265,-2.2767 -3.40593,-4.29896 -5.74779,-5.67639 -1.52284,-0.8957 -3.21868,-1.51238 -4.97296,-1.72171 -1.75429,-0.20934 -3.56662,-0.004 -5.20016,0.66885 -2.12505,0.87545 -3.8487,2.47915 -5.69693,3.84527 -0.25029,0.185 -0.51119,0.37442 -0.66508,0.64495 -0.0769,0.13527 -0.1244,0.28962 -0.12006,0.44518 0.004,0.15555 0.0634,0.31184 0.17475,0.42054 0.12105,0.11816 0.29322,0.17199 0.46207,0.18238 0.16884,0.0104 0.33731,-0.0186 0.50438,-0.0451 0.62954,-0.0999 1.28556,-0.17398 1.83116,-0.50356 0.2357,-0.14238 0.44404,-0.32988 0.61038,-0.54933"
       id="path1347"
       inkscape:path-effect="#path-effect1349"
       inkscape:original-d="m 146.20559,181.03855 c -9.6205,-13.4683 -20.22662,-29.09101 -20.14274,42.93898 0.007,6.42861 13.02518,0.94363 19.27803,-0.54933 6.64442,-1.58646 16.81571,-11.18902 19.53236,-17.89888 2.52745,-6.24254 0.34681,-12.19336 -2.74674,-17.76152 -1.16041,-2.08866 -3.41257,-4.68396 -5.74779,-5.67639 -3.07394,-1.30636 -6.95322,-1.43083 -10.17312,-1.05286 -2.38238,0.27965 -4.40823,1.96756 -5.69693,3.84527 -0.45681,0.6656 -0.72708,0.7757 -0.61039,1.51067 0.0296,0.18611 0.88616,0.13732 0.96645,0.13732 0.51691,0 1.42848,-0.20511 1.83116,-0.50356 0.2641,-0.19574 0.61038,-1.20179 0.61038,-0.54933" />
    <path
       style="fill:none;stroke:#000000;stroke-width:0.899999;stroke-dasharray:none;stroke-opacity:1"
       d="m 64.566455,231.34764 c -1.227903,-4.92019 -4.363051,-9.33824 -8.601897,-12.12179 -4.238846,-2.78356 -9.538963,-3.90476 -14.541916,-3.07623 -2.158789,0.35751 -4.257184,1.06409 -6.205609,2.05999 -1.145119,0.58531 -2.240026,1.27071 -3.255393,2.05996 -4.165588,3.23793 -6.856984,8.20139 -7.680676,13.41271 -0.54426,3.44341 -0.293926,7.06711 1.119035,10.25409 0.488871,1.10266 1.109445,2.14092 1.678565,3.20439 1.003889,1.87588 1.859471,3.8503 3.153659,5.53903 1.22778,1.60208 2.808637,2.89199 4.374427,4.16572 2.120391,1.72489 4.244637,3.45176 6.205606,5.35594 1.347735,1.30871 2.64591,2.72184 4.302454,3.60782 0.828272,0.44299 1.742136,0.74542 2.680223,0.79305 0.938086,0.0476 1.901307,-0.17028 2.681769,-0.69292 0.405702,-0.27168 0.754889,-0.61846 1.139318,-0.91949 0.384429,-0.30103 0.821883,-0.56253 1.306828,-0.61938 0.242473,-0.0284 0.493252,-0.003 0.719024,0.0895 0.225773,0.0929 0.425136,0.25579 0.546019,0.4679 0.120884,0.2121 0.158896,0.4736 0.08676,0.70683 -0.03607,0.11662 -0.09882,0.22517 -0.183547,0.31304 -0.08473,0.0879 -0.19145,0.15475 -0.308157,0.19053 -0.163221,0.05 -0.338126,0.0386 -0.508357,0.0257 -0.170231,-0.0129 -0.344667,-0.0263 -0.508945,0.0201 -0.126303,0.0357 -0.242391,0.10683 -0.331567,0.20314 -0.08918,0.0963 -0.151176,0.21752 -0.177081,0.34619"
       id="path1351"
       inkscape:path-effect="#path-effect1353"
       inkscape:original-d="m 64.566455,231.34764 c -11.244974,-3.11382 26.868244,7.59239 -23.143813,-15.19802 -1.983308,-0.90379 -4.16647,1.2904 -6.205609,2.05999 -0.841041,0.31741 -2.597187,1.4676 -3.255393,2.05996 -4.404598,3.96398 -6.824993,7.5088 -7.680676,13.41271 -0.494456,3.41157 -0.168439,7.03151 1.119035,10.25409 0.568369,1.42264 1.052847,1.98022 1.678565,3.20439 0.964208,1.8864 1.909548,3.81086 3.153659,5.53903 1.112771,1.54573 2.987849,2.89338 4.374427,4.16572 1.993284,1.82907 4.000386,3.78477 6.205606,5.35594 2.75358,1.96187 6.34623,3.14801 9.664446,3.70795 0.0607,0.0103 3.30625,0.36845 3.30625,0.22889 0,-0.0301 -0.981914,0.0214 -1.017302,0.0458 -0.205574,0.14147 -0.339098,0.36621 -0.508648,0.54933" />
    <path
       style="fill:none;stroke:#000000;stroke-width:0.899999;stroke-dasharray:none;stroke-opacity:1"
       d="m 45.390154,155.54067 c -0.391434,0.31125 -0.875272,0.50478 -1.373383,0.54933 -0.549569,0.0491 -1.102402,-0.0799 -1.616168,-0.28108 -0.513765,-0.20122 -0.995986,-0.47358 -1.486612,-0.72602 -1.711077,-0.88041 -3.559532,-1.52915 -5.473771,-1.72561 -1.914239,-0.19645 -3.899258,0.0759 -5.614913,0.9474 -1.388555,0.70531 -2.565556,1.78067 -3.536907,2.99806 -0.971351,1.21738 -1.747414,2.57794 -2.465231,3.96007 -2.673435,5.1476 -4.615598,10.81734 -4.527042,16.6171 0.0164,1.07421 0.102617,2.14933 0.305204,3.20439 0.596166,3.10479 2.183741,5.94414 4.102599,8.45673 1.918857,2.51259 4.175915,4.74283 6.324823,7.06174 1.812922,1.95634 3.571151,3.99716 5.725691,5.5694 2.15454,1.57223 4.7941,2.65689 7.448495,2.39583 1.959056,-0.19267 3.798635,-1.10847 5.325401,-2.35105 1.526765,-1.24258 2.765318,-2.80232 3.881252,-4.42396 0.869471,-1.26349 1.672974,-2.5732 2.594128,-3.79952 1.2853,-1.7111 2.797483,-3.25717 3.916657,-5.08126 1.85504,-3.02345 2.523913,-6.7033 2.132174,-10.22876 -0.391739,-3.52547 -1.8049,-6.89606 -3.810736,-9.82164 -0.341048,-0.49743 -0.700601,-0.98475 -1.119037,-1.4191 -1.12328,-1.166 -2.618927,-1.89899 -4.129465,-2.48174 -1.510538,-0.58275 -3.074514,-1.04163 -4.517679,-1.77552 -0.245741,-0.12497 -0.492807,-0.25956 -0.76439,-0.30697 -0.135791,-0.0237 -0.276728,-0.0247 -0.410404,0.009 -0.133675,0.0336 -0.259837,0.10318 -0.35118,0.20642 -0.106262,0.1201 -0.16075,0.28075 -0.168029,0.44094 -0.0073,0.16019 0.03024,0.3201 0.09059,0.46866 0.120715,0.29714 0.329048,0.54932 0.484373,0.82992 0.163896,0.29608 0.268293,0.62494 0.305181,0.96134"
       id="path1355"
       inkscape:path-effect="#path-effect1357"
       inkscape:original-d="m 45.390154,155.54067 c -3.92493,-1.85797 -1.35328,0.54933 -1.373383,0.54933 -0.338889,0 -3.074027,-0.99847 -3.10278,-1.0071 -4.180146,-1.25397 -6.713849,-2.74681 -11.088684,-0.77821 -2.890449,1.30065 -4.676136,4.25176 -6.002138,6.95813 -3.031268,6.18684 -4.116139,9.31356 -4.527042,16.6171 -0.06027,1.07127 0.05882,2.1601 0.305204,3.20439 1.433909,6.07759 6.263177,11.19617 10.427422,15.51847 3.622365,3.75985 7.645744,7.67257 13.174186,7.96523 4.409382,0.23343 7.058811,-3.62002 9.206653,-6.77501 0.862997,-1.26768 1.675765,-2.57136 2.594128,-3.79952 1.280653,-1.71265 3.08972,-3.10909 3.916657,-5.08126 2.607251,-6.21803 1.658389,-14.27512 -1.678562,-20.0504 -0.301382,-0.5216 -0.673926,-1.01318 -1.119037,-1.4191 -2.494322,-2.27473 -5.465587,-3.36248 -8.647144,-4.25726 -0.238702,-0.0671 -1.286295,-0.48375 -1.525974,-0.0916 -0.54973,0.89955 0.0071,0.89998 0.406937,1.73952 0.14455,0.30355 0.203454,0.64089 0.305181,0.96134" />
    <path
       style="fill:none;stroke:#000000;stroke-width:0.899999;stroke-dasharray:none;stroke-opacity:1"
       d="m 58.628218,63.160176 c -0.07937,-0.03465 -0.170042,-0.04281 -0.254325,-0.02289 -0.09405,0.02223 -0.177683,0.07794 -0.245951,0.146338 -0.06827,0.0684 -0.122488,0.149365 -0.173689,0.231323 -0.608634,0.974256 -0.839608,2.190208 -0.572238,3.307403 0.08909,0.372272 0.235194,0.738425 0.483222,1.029983 0.24712,0.290491 0.584659,0.49355 0.941012,0.629438 0.13378,0.05101 0.270721,0.0932 0.406926,0.137335 0.489118,0.158482 0.987643,0.345053 1.500529,0.308988 0.566878,-0.03986 1.089566,-0.355815 1.469969,-0.777991 0.380403,-0.422176 0.632562,-0.94429 0.831699,-1.476534 0.254969,-0.681468 0.431872,-1.396322 0.469574,-2.122949 0.0377,-0.726627 -0.067,-1.466201 -0.355125,-2.134326 -0.199902,-0.463543 -0.485073,-0.887247 -0.813848,-1.270313 -0.445829,-0.51945 -0.981989,-0.97271 -1.607623,-1.250511 -0.625634,-0.277801 -1.346272,-0.37031 -2.003831,-0.180027 -0.169366,0.04901 -0.332941,0.115893 -0.49594,0.18311 -0.871963,0.359574 -1.758643,0.745619 -2.441546,1.396201 -0.789415,0.752053 -1.23924,1.799485 -1.487816,2.861074 -0.223322,0.953738 -0.300106,1.94354 -0.203462,2.918296 0.117134,1.181415 0.494789,2.345056 1.157195,3.330287 1.147829,1.707226 3.053399,2.760624 4.997532,3.433289 0.718226,0.248504 1.46046,0.455474 2.220113,0.478504 0.759653,0.02303 1.544213,-0.151216 2.15432,-0.604396 0.242552,-0.180165 0.454237,-0.401775 0.623107,-0.652322"
       id="path1359"
       inkscape:path-effect="#path-effect1361"
       inkscape:original-d="m 58.628218,63.160176 c -0.08477,-0.0076 -0.169854,-0.03337 -0.254325,-0.02289 -0.148341,0.01841 -0.349242,0.298466 -0.41964,0.377661 -0.57994,0.652404 -0.68971,2.440482 -0.572238,3.307403 0.04793,0.353726 0.216297,0.789754 0.483222,1.029983 0.272404,0.245155 0.612441,0.468151 0.941012,0.629438 0.13522,0.06638 0.274174,0.0776 0.406926,0.137335 0.483952,0.217765 0.939461,0.471871 1.500529,0.308988 0.800534,-0.232402 2.021467,-1.484008 2.301668,-2.254525 0.400805,-1.102154 0.620427,-3.18585 0.114449,-4.257275 -0.215308,-0.455922 -0.511228,-0.870302 -0.813848,-1.270313 -0.879343,-1.162335 -2.152084,-1.731772 -3.611454,-1.430538 -0.172582,0.03562 -0.329832,0.124267 -0.49594,0.18311 -0.979086,0.346832 -1.69027,0.649436 -2.441546,1.396201 -0.78263,0.777933 -1.181629,1.823339 -1.487816,2.861074 -0.262638,0.890146 -0.360592,2.005547 -0.203462,2.918296 0.15426,0.896083 0.850069,2.655229 1.157195,3.330287 0.935514,2.056262 2.923149,2.935846 4.997532,3.433289 1.379273,0.330753 3.075154,0.783571 4.374433,-0.125892 0.246348,-0.172434 0.415404,-0.434882 0.623107,-0.652322" />
    <path
       style="fill:none;stroke:#000000;stroke-width:0.899999;stroke-dasharray:none;stroke-opacity:1"
       d="m 38.688938,52.516989 c 0.944822,-5.905548 4.849046,-11.261265 10.18225,-13.96776 5.333205,-2.706495 11.960915,-2.695524 17.28513,0.02861 0.03483,0.01782 0.0698,0.03583 0.107046,0.04781 0.03724,0.01198 0.07724,0.01775 0.115683,0.0105 0.01922,-0.0036 0.0379,-0.01051 0.05447,-0.02091 0.01656,-0.01041 0.03098,-0.02438 0.04122,-0.04105 0.01025,-0.01666 0.01624,-0.03604 0.01641,-0.0556 1.7e-4,-0.01956 -0.0056,-0.03925 -0.01692,-0.0552 -0.01611,-0.02267 -0.0424,-0.03656 -0.06953,-0.04266 -0.02713,-0.0061 -0.05533,-0.0052 -0.08306,-0.0031 -0.174923,0.01284 -0.346566,0.06829 -0.495935,0.160221"
       id="path1363"
       inkscape:path-effect="#path-effect1365"
       inkscape:original-d="m 38.688938,52.516989 c -10.28863,2.818016 -0.581991,0.180258 27.46738,-13.939147 0.1006,-0.05064 0.216805,-0.06481 0.317905,-0.11444 0.04767,-0.02339 -0.100785,-0.05744 -0.152596,-0.04578 -0.169487,0.03814 -0.330623,0.106815 -0.495935,0.160221" />
    <path
       style="fill:none;stroke:#000000;stroke-width:0.899999;stroke-dasharray:none;stroke-opacity:1"
       d="m 53.757848,71.434396 c -0.978063,-1.602088 -2.457145,-2.893321 -4.176602,-3.646157 -1.719456,-0.752837 -3.67149,-0.963862 -5.512112,-0.59589 -1.840622,0.367973 -3.561486,1.313275 -4.85934,2.669324 -1.297853,1.356049 -2.166812,3.116696 -2.453746,4.971679 -0.218565,1.412988 -0.09967,2.889491 0.434484,4.215758 0.534155,1.326266 1.495521,2.492943 2.744612,3.188699 0.476948,0.265665 0.990132,0.461766 1.513248,0.617993 0.856404,0.255762 1.764738,0.406589 2.645007,0.251769 0.708941,-0.124687 1.38159,-0.449415 1.920174,-0.926983"
       id="path1367"
       inkscape:path-effect="#path-effect1369"
       inkscape:original-d="m 53.757848,71.434396 c -0.490247,-5.956057 -0.503955,-7.371295 -17.0018,3.398956 -3.692035,2.410264 1.39831,6.428359 3.179096,7.404457 0.47779,0.261893 0.992955,0.456237 1.513248,0.617993 0.816358,0.253801 1.797341,0.34036 2.645007,0.251769 0.429512,-0.04489 1.543786,-0.733422 1.920174,-0.926983" />
    <path
       style="fill:none;stroke:#000000;stroke-width:0.899999;stroke-dasharray:none;stroke-opacity:1"
       d="m 17.363569,89.276043 c -4.656524,11.427267 -5.265414,24.457337 -1.694839,36.269057 3.570575,11.81172 11.295649,22.32251 21.502666,29.25667 10.207016,6.93416 22.824606,10.24321 35.120935,9.2107 12.296328,-1.0325 24.185417,-6.39934 33.093159,-14.93854 8.90774,-8.5392 14.77185,-20.19105 16.32269,-32.4328 1.55084,-12.24176 -1.22243,-24.987834 -7.71938,-35.478565 C 107.49185,70.671833 97.316662,62.509795 85.666258,58.443613 74.015854,54.377431 60.971698,54.435537 49.357981,58.60535 c -0.03111,0.01117 -0.06237,0.02244 -0.09129,0.03843 -0.02893,0.01599 -0.05568,0.03707 -0.07402,0.06457 -0.01648,0.0247 -0.02559,0.05369 -0.03057,0.08297 -0.005,0.02927 -0.006,0.05905 -0.0076,0.0887 -0.01119,0.213539 -0.04975,0.425628 -0.114446,0.629438"
       id="path1371"
       inkscape:path-effect="#path-effect1373"
       inkscape:original-d="M 17.363569,89.276043 C 34.839039,71.949134 34.579565,62.470331 49.357981,58.60535 c 0.05186,-0.01357 -0.164743,0.10178 -0.165312,0.102997 -0.02484,0.05309 -0.02718,0.114084 -0.03815,0.171665 -0.0399,0.209486 -0.0763,0.419624 -0.114446,0.629438" />
    <path
       style="fill:none;stroke:#000000;stroke-width:0.899999;stroke-dasharray:none;stroke-opacity:1"
       d="m 12.467764,75.222459 c -35.322719,33.796861 -57.256521,81.226711 -60.131526,130.028931 -2.875005,48.80222 13.338094,98.47935 44.4482154,136.18986 31.1101216,37.71051 76.8001406,63.07 125.2592066,69.52305 48.45906,6.45305 99.19319,-6.06613 139.08763,-34.32132 39.89444,-28.2552 68.54252,-71.95839 78.53873,-119.81231 9.9962,-47.85393 1.23863,-99.37079 -24.00889,-141.23348 C 290.41362,73.734489 248.93352,41.952688 201.94343,28.467366 154.95333,14.982045 102.93226,19.930668 59.327618,42.034018 c -0.462964,0.234678 -0.924994,0.471196 -1.386078,0.709546"
       id="path1375"
       inkscape:path-effect="#path-effect1377"
       inkscape:original-d="m 12.467764,75.222459 c -12.12083141,15.399795 -0.75858,0.910645 46.859854,-33.188441 0.865751,-0.619956 -1.269021,0.683209 -1.386078,0.709546" />
    <path
       style="fill:none;stroke:#000000;stroke-width:0.899999;stroke-dasharray:none;stroke-opacity:1"
       d="M 17.973955,74.581577 38.269298,52.345322"
       id="path1379"
       inkscape:path-effect="#path-effect1381"
       inkscape:original-d="M 17.973955,74.581577 C 24.73907,67.169492 31.504183,59.757407 38.269298,52.345322" />
    <path
       style="fill:none;stroke:#000000;stroke-width:0.899999;stroke-dasharray:none;stroke-opacity:1"
       d="m 20.199323,50.445571 9.51185,28.564946"
       id="path1383"
       inkscape:path-effect="#path-effect1385"
       inkscape:original-d="m 20.199323,50.445571 c 2.302128,11.049807 0.179987,1.241079 9.51185,28.564946" />
    <path
       style="fill:none;stroke:#000000;stroke-width:0.899999;stroke-dasharray:none;stroke-opacity:1"
       d="m 46.407778,55.172062 c 0.304351,2.725331 0.750225,5.434852 1.335223,8.114 4.296433,19.676601 16.409081,37.533798 33.102382,48.801518 16.693301,11.26773 37.784707,15.82277 57.640217,12.44837 19.85551,-3.3744 38.258,-14.64135 50.29175,-30.791173 C 200.81109,77.59495 206.3445,56.738847 203.89947,36.747604 201.45444,16.756361 191.0577,-2.1514034 175.48647,-14.924999 159.91524,-27.698594 139.33979,-34.198333 119.2563,-32.687987 99.1728,-31.177641 79.800881,-21.673728 66.315216,-6.7149568 52.829552,8.2438141 45.377617,28.493858 45.949991,48.625931"
       id="path1387"
       inkscape:path-effect="#path-effect1389"
       inkscape:original-d="m 46.407778,55.172062 c -5.776949,-8.113543 0.329415,10.663835 1.335223,8.114 1.806511,-4.579702 -1.19534,-9.773422 -1.79301,-14.660131" />
    <path
       style="fill:none;stroke:#000000;stroke-width:0.899999;stroke-dasharray:none;stroke-opacity:1"
       d="M 65.444197,47.733272 58.272158,60.985759"
       id="path1391"
       inkscape:path-effect="#path-effect1393"
       inkscape:original-d="m 65.444197,47.733272 c 3.805624,4.986287 1.127279,0.737045 -7.172039,13.252487" />
    <path
       style="fill:none;stroke:#000000;stroke-width:0.899999;stroke-dasharray:none;stroke-opacity:1"
       d="m 101.80033,43.819328 c 1.63825,0.18855 3.21909,0.851676 4.50159,1.888307 1.39078,1.124154 2.40371,2.645995 3.26811,4.211498 0.78089,1.414267 1.46525,2.903136 1.77251,4.489179 0.30727,1.586042 0.21446,3.286386 -0.50087,4.734921 -0.45352,0.918387 -1.14323,1.709438 -1.94561,2.346076 -0.19258,0.152802 -0.39271,0.297735 -0.61038,0.411996 -0.0995,0.05222 -0.20564,0.09869 -0.3179,0.102999 -0.0127,4.88e-4 -0.0255,4.29e-4 -0.0382,0 -0.12434,-0.0042 -0.24725,-0.04449 -0.34993,-0.11475 -0.10267,-0.07026 -0.18476,-0.170225 -0.2337,-0.284605 -0.0489,-0.114381 -0.0646,-0.242788 -0.0445,-0.365567 0.0201,-0.12278 0.0758,-0.239517 0.15864,-0.332346 0.0828,-0.09283 0.19249,-0.161435 0.3122,-0.195319 0.1197,-0.03388 0.24905,-0.03293 0.36825,0.0027 0.11919,0.03564 0.22783,0.10586 0.30928,0.1999 0.0815,0.09404 0.13545,0.211586 0.15372,0.334648"
       id="path1395"
       inkscape:path-effect="#path-effect1397"
       inkscape:original-d="m 101.80033,43.819328 c 1.50053,0.629436 3.2217,0.883494 4.50159,1.888307 1.39767,1.097272 2.26921,2.741917 3.26811,4.211498 1.58561,2.332738 2.34372,6.670111 1.27164,9.2241 -0.42039,1.001479 -1.12023,1.675153 -1.94561,2.346076 -0.0941,0.07653 -0.46036,0.335367 -0.61038,0.411996 -0.14613,0.07464 -0.18763,0.09127 -0.3179,0.102999 -0.0127,0.0011 -0.0462,0.0099 -0.0382,0 0.21207,-0.262461 0.45565,-0.498033 0.67397,-0.755324" />
    <path
       style="fill:none;stroke:#000000;stroke-width:0.899999;stroke-dasharray:none;stroke-opacity:1"
       d="m 125.44007,60.001554 c -0.58003,-1.391566 -1.55944,-2.614004 -2.79101,-3.483555 -1.23157,-0.869552 -2.71129,-1.383387 -4.21673,-1.464265 -1.50544,-0.08088 -3.0317,0.271465 -4.34934,1.004063 -1.31765,0.732597 -2.42239,1.843066 -3.14817,3.16448 -0.72578,1.321413 -1.07023,2.84947 -0.98157,4.354471 0.0887,1.505001 0.61013,2.982047 1.48603,4.209108 0.87591,1.227062 2.10339,2.200143 3.49794,2.772971 1.39454,0.572828 2.95161,0.743537 4.43714,0.486467 1.4036,-0.242892 2.73953,-0.866006 3.82763,-1.785313"
       id="path1399"
       inkscape:path-effect="#path-effect1401"
       inkscape:original-d="m 125.44007,60.001554 c -8.1641,6.375344 -16.09937,7.24558 -6.06571,11.04374 0.92322,0.349478 3.60109,-1.644425 3.82763,-1.785313" />
    <path
       style="fill:none;stroke:#000000;stroke-width:0.899999;stroke-dasharray:none;stroke-opacity:1"
       d="m 76.532882,83.210571 c -0.406568,-2.239353 -0.123013,-4.599143 0.80249,-6.678433 0.925502,-2.07929 2.489062,-3.869344 4.425026,-5.066024 1.935963,-1.196681 4.236197,-1.794961 6.509882,-1.69319 2.273684,0.10177 4.511268,0.903164 6.332577,2.268021 0.07689,0.05762 0.153572,0.116541 0.239132,0.160258 0.08556,0.04372 0.181641,0.07181 0.277332,0.06314 0.04784,-0.0043 0.09507,-0.01795 0.136789,-0.04176 0.04172,-0.02382 0.0778,-0.058 0.101914,-0.09955 0.02411,-0.04155 0.03592,-0.09051 0.03119,-0.138319 -0.0047,-0.04781 -0.02637,-0.09414 -0.06153,-0.126879 -0.01787,-0.01664 -0.03956,-0.02993 -0.06358,-0.03433 -0.02612,-0.0048 -0.0541,0.0016 -0.07555,0.01725 -0.02146,0.01564 -0.0361,0.04032 -0.03954,0.06665 -0.0034,0.02633 0.0044,0.05394 0.02108,0.07457 0.01672,0.02063 0.04211,0.03399 0.06858,0.03608"
       id="path1403"
       inkscape:path-effect="#path-effect1405"
       inkscape:original-d="m 76.532882,83.210571 c -6.304007,4.997963 0.695836,-0.584388 18.069975,-11.169626 0.212815,-0.129657 0.48614,-0.111506 0.724834,-0.18311 0.02307,-0.0069 -0.05713,-0.05754 -0.06358,-0.03433 -0.01752,0.06302 -0.01696,0.129704 -0.02543,0.194554" />
    <path
       style="fill:none;stroke:#000000;stroke-width:0.899999;stroke-dasharray:none;stroke-opacity:1"
       d="m 82.331551,86.529417 c -1.892903,0.261771 -3.861738,-0.05373 -5.578058,-0.893882 -1.716321,-0.840148 -3.173188,-2.201542 -4.127563,-3.85707 -0.954374,-1.655529 -1.402398,-3.598498 -1.26933,-5.504777 0.133068,-1.906278 0.84669,-3.768159 2.021817,-5.275037 1.175127,-1.506878 2.807007,-2.652662 4.623407,-3.246208 1.8164,-0.593546 3.809975,-0.632455 5.648151,-0.110235 1.838176,0.52222 3.513522,1.603456 4.746551,3.063334 1.233029,1.459879 2.018756,3.292496 2.226104,5.192131 0.07471,0.68447 0.07616,1.374888 0.133602,2.061024 0.05744,0.686135 0.173906,1.377289 0.46407,2.001698 0.137584,0.29607 0.312888,0.574196 0.437083,0.876127 0.124195,0.301931 0.195562,0.639753 0.112892,0.95559 -0.04133,0.157918 -0.121708,0.307026 -0.239339,0.420206 -0.117631,0.11318 -0.273402,0.188736 -0.436273,0.199677 -0.162872,0.01094 -0.33135,-0.04559 -0.44713,-0.160661 -0.05789,-0.05754 -0.102277,-0.128811 -0.126971,-0.206605 -0.02469,-0.07779 -0.0295,-0.162002 -0.01238,-0.241805 0.01,-0.04647 0.02714,-0.0911 0.03815,-0.137332 0.03213,-0.134927 0.0087,-0.282207 -0.06359,-0.40055"
       id="path1407"
       inkscape:path-effect="#path-effect1409"
       inkscape:original-d="m 82.331551,86.529417 c 2.763692,-3.543914 4.809257,-7.790222 8.291079,-10.631744 2.396685,-1.955938 0.737737,3.651673 0.597672,4.062722 -0.208185,0.610952 -0.463611,1.246145 -0.712121,1.842529 -0.01828,0.04385 0.02858,-0.0908 0.03815,-0.137332 0.04781,-0.23233 0.03402,-0.162113 -0.06359,-0.40055" />
    <path
       style="fill:none;stroke:#000000;stroke-width:0.899999;stroke-dasharray:none;stroke-opacity:1"
       d="m 87.557979,86.300531 c -0.199984,-6.09e-4 -0.399921,-0.01592 -0.597664,-0.04578 -1.020085,-0.154016 -1.971313,-0.708593 -2.621091,-1.509894 -0.649779,-0.8013 -0.995205,-1.840059 -0.971693,-2.871438 0.02351,-1.031378 0.412536,-2.048076 1.070407,-2.842745 0.657872,-0.79467 1.578519,-1.364599 2.579098,-1.615871 1.000578,-0.251271 2.075833,-0.185296 3.044302,0.170179 0.96847,0.355474 1.827464,0.996942 2.457242,1.814055 0.629777,0.817114 1.030239,1.806313 1.163675,2.829294 0.133437,1.02298 0.0014,2.077345 -0.363754,3.04221 -0.496348,1.311561 -1.427625,2.454314 -2.612019,3.205158 -1.184393,0.750844 -2.615245,1.10556 -4.013211,0.994896"
       id="path1411"
       inkscape:path-effect="#path-effect1413"
       inkscape:original-d="m 87.557979,86.300531 c -0.19922,-0.01527 -0.79435,-0.01061 -0.597664,-0.04578 2.111155,-0.377478 4.705754,-2.351302 6.358186,-0.98421 2.58391,2.137724 -6.54463,4.177461 -6.62523,4.200054" />
    <path
       style="fill:none;stroke:#000000;stroke-width:0.899999;stroke-dasharray:none;stroke-opacity:1"
       d="M 84.544203,89.058606 80.894604,85.407875"
       id="path1415"
       inkscape:path-effect="#path-effect1417"
       inkscape:original-d="m 84.544203,89.058606 c -2.054518,-1.155634 -0.60716,-0.225055 -3.649599,-3.650731" />
    <path
       style="fill:none;stroke:#000000;stroke-width:0.899999;stroke-dasharray:none;stroke-opacity:1"
       d="m 76.100529,94.551861 c -2.531675,-1.882383 -4.183676,-4.901033 -4.404438,-8.048096 -0.220763,-3.147063 0.993623,-6.366788 3.237703,-8.584184 2.24408,-2.217396 5.4781,-3.393182 8.622298,-3.134791 3.144197,0.25839 6.142871,1.946381 7.994836,4.500391 0.405581,0.559329 0.760411,1.161711 0.984269,1.815341 0.223858,0.65363 0.312732,1.362276 0.185639,2.041387 -0.122467,0.654388 -0.440651,1.260583 -0.844618,1.789764 -0.403968,0.529181 -0.89289,0.987172 -1.393471,1.42608 -0.554023,0.485766 -1.125341,0.951498 -1.703991,1.407649 -2.714572,2.139901 -5.629399,4.089447 -8.87603,5.275815 -1.460901,0.533835 -2.996619,0.911057 -4.551999,0.909274 -1.555381,-0.0018 -3.136977,-0.40255 -4.400334,-1.309821 -0.862887,-0.619676 -1.554601,-1.456243 -2.098206,-2.368968 -1.07617,-1.806914 -1.588896,-3.94409 -1.449666,-6.042588"
       id="path1419"
       inkscape:path-effect="#path-effect1421"
       inkscape:original-d="m 76.100529,94.551861 c -6.510427,-3.700375 -4.07461,-2.21371 15.450399,-15.26668 1.116835,-0.746633 1.137272,2.513703 1.169908,3.856728 0.02088,0.858851 -1.646319,2.662343 -2.238089,3.215844 -0.538059,0.503266 -1.12218,0.955675 -1.703991,1.407649 -2.779612,2.15932 -5.566613,3.973833 -8.87603,5.275815 -2.479802,0.975599 -6.714008,1.494592 -8.952333,-0.400547 -0.805053,-0.681622 -1.5313,-1.479396 -2.098206,-2.368968 -1.046155,-1.641597 -1.185503,-4.315034 -1.449666,-6.042588" />
    <path
       style="fill:none;stroke:#000000;stroke-width:0.899999;stroke-dasharray:none;stroke-opacity:1"
       d="m 93.394801,55.961719 c -1.297295,-2.337916 -3.290338,-4.284035 -5.658495,-5.52527 -2.368156,-1.241235 -5.102547,-1.772933 -7.763273,-1.509556 -2.660726,0.263377 -5.237811,1.320842 -7.316661,3.002273 -2.078851,1.68143 -3.651673,3.980523 -4.465437,6.527407 -0.652774,2.043024 -0.817049,4.269406 -0.265394,6.342022 0.551655,2.072616 1.854057,3.973898 3.698817,5.067938 0.882712,0.523495 1.868845,0.85674 2.873902,1.064318 1.541248,0.318319 3.143203,0.346021 4.692346,0.06866 3.148378,-0.563691 5.997443,-2.385205 8.100335,-4.795158 0.728077,-0.83439 1.379368,-1.747895 1.816496,-2.765354 0.437127,-1.017459 0.652824,-2.146407 0.49788,-3.242899 -0.135126,-0.956244 -0.546788,-1.859052 -1.093605,-2.655075 -0.573941,-0.835508 -1.300794,-1.566218 -2.136354,-2.140083 -0.886186,-0.608635 -1.897278,-1.040673 -2.95598,-1.227523 -1.058702,-0.18685 -2.164324,-0.125514 -3.186026,0.208983 -0.708649,0.232006 -1.375819,0.594777 -1.945611,1.075762 -0.723551,0.61078 -1.280648,1.403146 -1.688968,2.25746 -0.408321,0.854314 -0.672533,1.77123 -0.867026,2.697918 -0.312559,1.489229 -0.448607,3.02902 -0.23686,4.53589 0.211747,1.506871 0.785874,2.983002 1.775542,4.13888 1.095946,1.280005 2.66112,2.114075 4.307304,2.474062 1.646184,0.359987 3.370104,0.266073 5.013803,-0.105094 2.27962,-0.514765 4.490616,-1.605838 5.989418,-3.398949 0.200103,-0.239395 0.387753,-0.491767 0.526799,-0.771083 0.139047,-0.279316 0.228379,-0.587817 0.223466,-0.89979 -0.0051,-0.324691 -0.113449,-0.644756 -0.293243,-0.915173 -0.179793,-0.270416 -0.429288,-0.491776 -0.711348,-0.652689 -0.670303,-0.382403 -1.531967,-0.406398 -2.222513,-0.06189 -0.690545,0.344508 -1.189594,1.047352 -1.287211,1.812865"
       id="path1423"
       inkscape:path-effect="#path-effect1425"
       inkscape:original-d="m 93.394801,55.961719 c 2.590718,-8.437981 5.931437,-18.379168 -25.203866,2.494854 -3.298981,2.211736 1.641252,7.865501 3.433423,11.40996 0.46095,0.91164 1.863614,0.913037 2.873902,1.064318 1.547035,0.231656 3.140541,0.265856 4.692346,0.06866 2.592189,-0.329396 6.320872,-2.960672 8.100335,-4.795158 1.785665,-1.840878 2.524683,-3.199124 2.314376,-6.008253 -0.07146,-0.95449 -0.558871,-1.861214 -1.093605,-2.655075 -0.563118,-0.835999 -1.309333,-1.56386 -2.136354,-2.140083 -1.955715,-1.362638 -3.797842,-1.536189 -6.142006,-1.01854 -0.723638,0.159795 -1.388443,0.587143 -1.945611,1.075762 -1.43897,1.261938 -2.199994,3.127293 -2.555994,4.955378 -0.626099,3.215077 -0.396438,5.739591 1.538682,8.67477 1.622602,2.461154 6.774193,3.00075 9.321107,2.368968 2.433172,-0.603565 4.496062,-1.406636 5.989418,-3.398949 0.366178,-0.488527 0.632634,-1.071782 0.750265,-1.670873 0.121002,-0.616243 -0.103439,-1.656265 -1.004591,-1.567862 -1.397635,0.137107 -2.410963,1.015089 -3.509724,1.750975" />
    <path
       style="fill:none;stroke:#000000;stroke-width:0.899999;stroke-dasharray:none;stroke-opacity:1"
       id="path1476"
       d="m 110.87255,36.901186 c -0.83843,-0.84109 -1.5485,-1.274064 -2.75179,-1.849745 -0.12921,-0.06182 -0.28647,-0.0011 -0.4297,-0.0016 -0.16648,0.06184 -0.34308,0.101319 -0.49946,0.185507 -0.38469,0.207103 -0.71928,0.521063 -0.99508,0.854649 -0.24468,0.295939 -0.55541,0.745546 -0.61293,1.144913 -0.0288,0.199885 0.035,0.402378 0.0525,0.603565 0.10563,0.179073 0.18414,0.377214 0.3169,0.537215 0.13471,0.162351 0.29641,0.306142 0.47545,0.417724 0.65731,0.409665 1.33637,0.784847 2.02448,1.140347 0.15293,0.079 0.99623,0.338135 1.16598,0.404638 0.17516,0.06863 0.34257,0.155596 0.51385,0.233394 -0.35954,-0.198993 -0.69045,-0.46209 -1.07862,-0.596977 -0.16366,-0.05687 0.2648,0.225158 0.38029,0.354309 0.42228,0.472236 0.66481,1.083212 0.93472,1.647105 0.25359,0.568931 0.67544,1.044644 0.9287,1.613289 0.0588,0.132054 0.10367,0.269894 0.1555,0.404839 0.38615,1.339739 -0.0581,-0.239067 0.34373,1.333048 0.0806,0.315502 0.12737,0.64381 0.2571,0.942498 0.0753,0.173419 1.40157,2.516606 1.47937,2.654665 0,0 0.0726,0.03364 0.0726,0.03364 v 0 c -0.0619,-0.358076 -0.16553,-0.711406 -0.18559,-1.074235 -0.0169,-0.306149 0.0841,-0.610253 0.0755,-0.916746 -0.008,-0.294677 -0.0836,-0.583624 -0.12594,-0.875364 -0.12808,-0.882996 -0.0661,-0.507682 -0.21396,-1.304565 -0.0508,-0.142552 -0.0935,-0.288256 -0.15238,-0.427657 -0.2493,-0.59015 -0.68858,-1.071252 -0.98431,-1.635582 -0.066,-0.130289 -0.1339,-0.259591 -0.19787,-0.390864 -0.22169,-0.454882 -0.42123,-0.920742 -0.73893,-1.321184 -0.64207,-0.809296 -1.22491,-0.891614 -2.33143,-1.532625 -1.11677,-0.455591 0.13149,0.03984 -1.04455,-0.382521 -0.19489,-0.06999 -0.71913,-0.37754 -0.57902,-0.225068 0.23625,0.257085 0.57282,0.404294 0.88584,0.558956 0.18007,0.08897 -0.34272,-0.216429 -0.48317,-0.360003 -0.12283,-0.125563 -0.19713,-0.290785 -0.29569,-0.436179 -0.0167,-0.170619 -0.0731,-0.341976 -0.0501,-0.51186 0.0526,-0.388752 0.31507,-0.795155 0.5648,-1.078354 0.27032,-0.30656 0.6249,-0.586645 1.01048,-0.73574 0.15667,-0.06058 0.32908,-0.06762 0.49362,-0.101426 0.87546,0.167251 0.63394,0.166717 -0.9711,-0.730062 -0.10307,-0.05759 0.1945,0.134054 0.28868,0.205275 0.30996,0.234428 0.21441,0.179948 0.49472,0.41231 0.0691,0.05731 0.14107,0.111115 0.21161,0.166675 0,0 1.59526,0.639812 1.59526,0.639812 z" />
    <path
       style="fill:none;stroke:#000000;stroke-width:0.899999;stroke-dasharray:none;stroke-opacity:1"
       id="path1478"
       d="m 75.432099,34.214093 c 0.746739,-0.208023 1.478108,-0.468701 2.206157,-0.733531 0.354885,-0.12909 0.70517,-0.270864 1.061907,-0.394742 0.935615,-0.324898 1.093349,-0.35116 2.0182,-0.601411 0.248216,-0.0602 0.490495,-0.155284 0.744651,-0.180592 0.171741,-0.01709 0.657683,0.152035 0.514824,0.05519 -0.463812,-0.314433 -0.961449,-0.634693 -1.513272,-0.732065 -0.169788,-0.02996 0.129935,0.32253 0.157192,0.492776 0.04618,0.28842 0.04151,0.582713 0.06166,0.874112 0.03152,0.455906 0.06223,0.911868 0.09334,1.367803 0.210939,1.647751 0.299357,2.499196 0.603451,4.167878 0.137374,0.753822 0.277442,1.508054 0.460272,2.25216 0.187849,0.764545 0.413835,1.519648 0.65093,2.270382 0.139253,0.440933 1.231998,3.539744 1.428073,4.097575 0.280503,0.79696 0.729115,1.800408 0.749181,2.694006 0.0055,0.243382 0.01196,0.538946 -0.158287,0.712968 -0.161134,0.164716 -0.447101,0.15894 -0.676799,0.140686 -0.78709,-0.06255 -1.751854,-0.544684 -2.441784,-0.834191 -0.422958,-0.225473 -0.845915,-0.450948 -1.268873,-0.676421 0.152215,0.05743 0.519393,0.322382 0.456647,0.172281 -0.121809,-0.291407 -0.509767,-0.399372 -0.666252,-0.673722 -0.12459,-0.218426 -0.20211,-0.497265 -0.140775,-0.741132 0.205439,-0.816784 1.207543,-1.551765 1.730862,-2.041305 3.111164,-2.158712 0.191884,-0.19371 3.619207,-2.310694 1.115261,-0.688872 2.809451,-1.772674 3.814709,-2.640692 1.352278,-1.167662 1.440799,-1.470954 2.404607,-2.865038 0.194194,-0.450736 0.433364,-0.884656 0.582584,-1.352211 0.197006,-0.617297 0.330496,-1.452026 0.1983,-2.11586 -0.209825,-1.053677 -2.271197,-1.418199 -2.707839,-1.446009 -0.319508,-0.02035 -0.350869,0.535623 -0.526304,0.803431 -0.126521,0.480407 -0.293576,0.951929 -0.379565,1.441217 -0.259943,1.47913 -0.278842,2.783761 -0.04911,4.289775 0.184515,1.209577 1.053661,4.322241 1.371521,5.507778 0,0 0.07188,0.03511 0.07188,0.03511 v 0 c -0.186766,-2.983693 -0.191677,-1.877039 -0.08342,-4.851829 0.02743,-0.753618 0.0181,-1.510551 0.101066,-2.260089 0.176035,-1.590331 0.311825,-1.678207 0.872715,-3.02754 0.977601,-1.048385 0.825984,-0.486608 -0.954241,-1.825448 -0.169921,-0.127791 0.368972,0.247608 0.46373,0.437933 0.139372,0.279927 0.198038,0.601912 0.209571,0.914403 0.03978,1.077844 -0.253019,1.596673 -0.602163,2.614274 -0.824603,1.398225 -0.921681,1.775976 -2.173457,2.94264 -0.543446,0.506497 -1.142952,0.952228 -1.752904,1.376294 -1.876462,1.304599 -3.97533,2.226114 -5.904645,3.442274 -0.583377,0.435943 -1.871798,1.192308 -2.125943,2.050031 -0.198771,0.670833 0.514149,1.339993 0.945594,1.640139 1.52382,1.060082 2.345267,1.445056 3.810199,2.198621 0.682717,0.274828 1.77706,0.813457 2.574263,0.783313 0.277231,-0.01048 0.60969,-0.08955 0.769964,-0.316006 0.16134,-0.227954 0.08627,-0.560247 0.0458,-0.836575 -0.112821,-0.770252 -0.71927,-2.177894 -0.969135,-2.81918 -0.655897,-1.648138 -0.991428,-2.379253 -1.491541,-4.113379 -0.210201,-0.728869 -0.385524,-1.467866 -0.545391,-2.209404 -0.439713,-2.03959 -0.726342,-4.1164 -0.699725,-6.206736 0.01307,-0.260402 0.09895,-1.753182 0.08636,-2.163826 -0.0061,-0.198956 0.08423,-0.463505 -0.06658,-0.593428 -0.935305,-0.805826 -1.468946,-1.494399 -2.408428,-1.106742 -0.201118,0.08299 -0.388281,0.196422 -0.582422,0.294632 -0.249499,0.132739 -0.493369,0.276651 -0.748501,0.398214 -0.727432,0.346602 -1.263118,0.540372 -2.037884,0.786966 -0.632942,0.201454 -1.215295,0.362299 -1.865845,0.478666 -0.179988,0.03219 -0.363093,0.0435 -0.544639,0.06525 0,0 1.206299,0.871032 1.206299,0.871032 z" />
    <path
       style="fill:none;stroke:#000000;stroke-width:0.899999;stroke-dasharray:none;stroke-opacity:1"
       id="path1480"
       d="m 98.949451,40.726415 c -0.599911,-0.340185 -1.178883,-0.720283 -1.799733,-1.020559 -0.198266,-0.09589 -0.760662,0.04894 -0.889392,0.09735 -0.794298,0.298669 -1.198179,0.567243 -1.825919,1.182103 -0.326368,0.319672 -0.59831,0.690549 -0.897466,1.035822 -0.214739,0.425024 -0.519777,0.815425 -0.644216,1.27507 -0.234828,0.867415 -0.08508,1.804918 0.323943,2.590294 0.175961,0.33787 0.387802,0.688756 0.705342,0.899195 0.788863,0.52279 1.635395,0.999116 2.54631,1.255725 0.326568,0.09199 0.65581,-0.174207 0.983716,-0.26131 0.804804,-0.601075 0.769599,-0.46245 1.305049,-1.274874 0.117279,-0.177943 0.198369,-0.377314 0.302758,-0.56311 0.0525,-0.09344 0.25854,-0.217363 0.16774,-0.274307 -3.007003,-1.88578 -2.731159,-1.632783 -2.055251,-0.714047 0.91981,1.468157 0.02582,0.158277 1.587097,1.931771 0.26655,0.302781 0.500169,0.633037 0.750253,0.949555 0,0 0.07339,0.03185 0.07339,0.03185 v 0 c -0.175361,-0.282215 -0.466252,-0.519817 -0.526079,-0.846646 -0.06433,-0.351396 0.665964,-0.588192 0.304406,-1.027562 0.136659,-1.251789 0.205247,-0.691557 -2.396107,-1.57303 -0.103544,-0.03509 -0.0113,0.219654 -0.03722,0.325863 -0.11267,0.461505 -0.284501,0.895216 -0.576313,1.279189 -0.169756,0.22337 -0.395049,0.398471 -0.592574,0.597705 -0.262107,0.08588 -0.744254,-0.01495 -0.786326,0.257643 -0.04594,0.297656 0.774677,0.901975 0.649642,0.627975 -0.155839,-0.341508 -0.561162,-0.516445 -0.747461,-0.842338 -0.405556,-0.70944 -0.524597,-1.622602 -0.30203,-2.411187 0.124582,-0.441413 0.418883,-0.816084 0.628325,-1.224127 0.949976,-0.991441 0.800121,-0.954923 1.913787,-1.675032 0.53258,-0.344371 0.693864,-0.482698 1.269201,-0.486801 0.105719,-7.94e-4 0.397579,0.120049 0.311766,0.05829 -0.45294,-0.325978 -0.955437,-0.576895 -1.433155,-0.865341 0,0 1.686518,0.664871 1.686518,0.664871 z" />
    <path
       style="fill:none;stroke:#000000;stroke-width:0.899999;stroke-dasharray:none;stroke-opacity:1"
       id="path1482"
       d="m 104.27161,27.32609 c -0.10446,0.06334 -0.22858,0.102081 -0.31339,0.190007 -0.67041,0.695021 -0.68338,1.146641 -0.956,2.198347 -0.1828,0.705244 -0.34326,1.416693 -0.48001,2.132295 -0.49969,2.614816 -0.38207,2.2522 -0.47909,4.948576 0.0674,0.809885 0.0768,1.626698 0.20225,2.429651 0.22825,1.461412 0.62741,2.787943 1.34859,4.081756 0.50351,0.903292 1.29487,2.006576 2.34872,2.372394 0.39265,0.136297 0.83114,-0.01453 1.24671,-0.02177 0,0 -0.0651,-0.04649 -0.0651,-0.04649 v 0 c -0.31734,0.05328 -0.64252,0.247906 -0.95202,0.159834 -0.62334,-0.177382 -1.2068,-1.522417 -1.35825,-1.897369 -0.2262,-0.560012 -0.40242,-1.140746 -0.55018,-1.726361 -0.50552,-2.003547 -0.44425,-2.412008 -0.61146,-4.521663 0.0521,-0.826024 0.0449,-1.657927 0.15619,-2.478072 0.19858,-1.463103 0.63142,-2.955168 1.18274,-4.324109 0.19387,-0.481378 0.44939,-0.935609 0.68077,-1.400122 0.29431,-0.590846 0.22882,-0.476242 0.46954,-0.843407 0,0 -1.87,-1.253487 -1.87,-1.253487 z" />
    <path
       style="fill:none;stroke:#000000;stroke-width:0.899999;stroke-dasharray:none;stroke-opacity:1"
       id="path1484"
       d="m 112.19505,30.948 c -0.006,-0.05671 -0.004,-0.115038 -0.0187,-0.170132 -0.26712,-0.992749 -1.99021,-1.541394 -2.58491,-1.688878 -0.18963,-0.04702 -0.30766,0.240874 -0.46148,0.36131 -0.14503,0.259712 -0.32257,0.503771 -0.43508,0.779134 -0.32855,0.804148 -0.61824,2.12081 -0.72869,2.933025 -0.17942,1.31934 -0.25811,3.151984 -0.21008,4.470988 0.0274,0.751416 0.12634,1.498515 0.18951,2.24777 0.68191,2.25947 0.3842,2.017382 1.84648,3.900207 0.31712,0.408326 0.70924,0.752432 1.06387,1.128649 0,0 0.0738,0.03083 0.0738,0.03083 v 0 c -0.35493,-0.37551 -0.80531,-0.679707 -1.06479,-1.12653 -0.41686,-0.717825 -0.56777,-2.613204 -0.65769,-3.300277 -0.03,-0.72708 -0.0966,-1.453576 -0.0899,-2.181246 0.0218,-2.38465 0.35605,-4.861245 1.49786,-6.98948 0.1288,-0.240075 0.29941,-0.455252 0.44912,-0.682879 0.75708,-0.681071 0.42502,-0.199122 -1.16325,-1.297566 -0.10156,-0.07024 0.21202,0.128521 0.30653,0.207986 0.0375,0.03155 0.56461,0.58293 0.57937,0.598038 0.0906,0.09275 0.18297,0.18375 0.27445,0.275624 0,0 1.13357,0.503428 1.13357,0.503428 z" />
    <path
       style="fill:none;stroke:#000000;stroke-width:0.899999;stroke-dasharray:none;stroke-opacity:1"
       id="path1486"
       d="m 118.85926,39.733505 c 0.0298,-0.06058 0.25572,-0.517676 0.25785,-0.529471 0.0402,-0.222358 -0.0436,-0.701627 -0.15443,-0.889397 -0.0786,-0.133069 -0.18892,-0.258408 -0.32616,-0.329398 -0.79997,-0.4138 -1.64143,-0.741931 -2.46215,-1.112896 -0.21351,0.09285 -0.44674,0.149503 -0.64053,0.278554 -0.22427,0.149349 -0.42693,0.336089 -0.59667,0.545346 -0.43768,0.539557 -0.62732,1.039024 -0.68634,1.736465 -0.0284,0.336016 -0.0206,0.680697 0.0502,1.010404 0.0703,0.327533 0.24496,0.623597 0.36743,0.935395 1.11762,0.914527 1.39988,1.268751 3.23054,1.680141 0.30663,0.06891 0.62144,-0.136832 0.89891,-0.284419 0.48955,-0.26039 1.12196,-0.893257 1.36045,-1.39691 0.14039,-0.296481 0.15884,-0.636566 0.23825,-0.954849 -0.19444,-0.398354 -0.38888,-0.796708 -0.58332,-1.195062 0,0 -0.0709,-0.03708 -0.0709,-0.03708 v 0 c -0.25341,0.149029 -0.50682,0.298059 -0.76023,0.447085 -0.4292,0.835229 -0.76494,1.682356 -1.67738,2.113722 -0.26672,0.126095 -0.80966,-0.07756 -0.85898,0.213315 -0.0565,0.33306 0.60579,0.409602 0.69824,0.734518 0.0707,0.248528 -0.41412,-0.309137 -0.62118,-0.463706 -0.11902,-0.285142 -0.28713,-0.554458 -0.35705,-0.855427 -0.0718,-0.309094 -0.0875,-0.633606 -0.0624,-0.949934 0.0519,-0.652036 0.23943,-1.103958 0.67952,-1.581401 0.1692,-0.183571 0.37212,-0.340019 0.59105,-0.460015 0.1826,-0.10009 0.39672,-0.126744 0.59507,-0.190114 -0.45923,-0.341921 -0.93859,-0.658344 -1.37769,-1.025761 -0.13023,-0.108971 0.33064,0.121555 0.44599,0.246161 0.11246,0.12147 0.13951,0.300376 0.20191,0.453697 0.0654,0.160774 0.11376,0.328268 0.18141,0.488122 0.36486,0.862158 0.12169,0.140554 0.32832,0.796522 0,0 1.11027,0.576395 1.11027,0.576395 z" />
    <path
       style="fill:none;stroke:#000000;stroke-width:0.899999;stroke-dasharray:none;stroke-opacity:1"
       id="path1488"
       d="m 118.66527,70.421285 c -0.14833,0.627226 -0.43164,1.810305 -0.54819,2.379948 -0.1099,0.537141 -0.20858,1.076603 -0.30152,1.616938 -0.17442,1.014116 -0.32814,1.996043 -0.40221,3.022041 -0.0289,0.399844 -0.0256,0.801362 -0.0384,1.202042 0.0888,0.895252 0.052,1.067737 0.33549,1.904082 0.19295,0.569198 0.51143,1.185246 0.80801,1.703927 0.16223,0.283723 0.33255,0.563076 0.51287,0.83566 0.18363,0.277574 0.38558,0.542584 0.57836,0.813877 0.2006,0.242313 0.38747,0.496684 0.6018,0.72694 0.87681,0.941951 1.96976,1.5495 3.18675,2.052217 0.26155,0.10804 0.57943,0.03327 0.8469,-0.05916 0.81796,-0.282655 1.0159,-0.798349 1.50251,-1.465422 0.17889,-0.460615 0.40412,-0.905824 0.53667,-1.381847 0.53846,-1.933736 0.48616,-3.965202 0.26172,-5.939711 -0.37399,-3.290038 -0.29388,-0.610197 -0.3065,-3.246318 0,0 -0.0713,-0.03628 -0.0713,-0.03628 v 0 c 0.002,0.446318 0.0668,0.896718 0.007,1.338956 -0.0718,0.526878 -0.2728,1.02797 -0.39936,1.544431 -0.14646,0.597675 -0.28058,1.198311 -0.41964,1.797751 -0.26456,1.140471 -0.50276,2.39345 -0.9328,3.493397 -0.1712,0.437896 -0.41837,0.842148 -0.62756,1.263221 -0.51264,0.585738 -0.71934,1.011338 -1.4775,1.248992 -0.21578,0.06764 -0.80422,-0.156106 -0.67767,0.0313 0.26848,0.397605 0.76557,0.606356 1.21732,0.767894 0.57501,0.205616 -2.09363,-1.423937 -1.29875,-1.292074 -0.19529,-0.266877 -0.40063,-0.52669 -0.58588,-0.800634 -0.3306,-0.488881 -0.69345,-1.117455 -0.95414,-1.648135 -0.25943,-0.528137 -0.51901,-1.141452 -0.661,-1.714336 -0.0831,-0.335401 -0.12113,-0.680402 -0.1817,-1.020603 -0.0114,-0.40671 -0.0445,-0.813393 -0.0341,-1.220132 0.0597,-2.347341 0.62902,-4.655894 1.49703,-6.82875 0,0 -1.9737,-1.09021 -1.9737,-1.09021 z" />
    <path
       style="fill:none;stroke:#000000;stroke-width:0.899999;stroke-dasharray:none;stroke-opacity:1"
       id="path1490"
       d="m 130.01042,79.79248 c -0.0112,0.445606 -0.0337,0.905063 0.0198,1.347795 0.043,0.355582 0.0755,0.719251 0.19631,1.056428 0.15532,0.433457 0.41591,0.821616 0.62387,1.232424 0,0 0.0714,0.03602 0.0714,0.03602 v 0 c 0.18146,-0.210272 0.408,-0.38886 0.54438,-0.630814 0.13959,-0.247647 0.19302,-0.53544 0.26762,-0.809754 0.10593,-0.389512 0.14293,-0.795476 0.25632,-1.18354 0,0 -1.97975,-1.048554 -1.97975,-1.048554 z" />
    <path
       style="fill:none;stroke:#000000;stroke-width:0.899999;stroke-dasharray:none;stroke-opacity:1"
       id="path1492"
       d="m 132.3183,67.689618 c 0.13203,0.201933 0.26406,0.403865 0.3961,0.605798 0,0 0.0704,0.03797 0.0704,0.03797 v 0 c 0.18595,-0.02521 0.3719,-0.05043 0.55786,-0.07565 0,0 -1.02437,-0.568121 -1.02437,-0.568121 z" />
    <path
       style="fill:none;stroke:#000000;stroke-width:0.899999;stroke-dasharray:none;stroke-opacity:1"
       id="path1494"
       d="m 137.07645,82.926162 c 0.10156,-0.05466 0.2102,-0.09785 0.30468,-0.163994 0.13201,-0.09243 0.25551,-0.197514 0.37149,-0.309398 0.60581,-0.584409 0.94538,-1.184963 1.1982,-1.993813 0.10028,-0.320836 0.15299,-0.654648 0.22949,-0.981972 -0.0285,-0.308059 -0.003,-0.626025 -0.0855,-0.924179 -0.3183,-1.149421 -2.31473,-1.689446 -2.96129,-1.85937 -0.27427,-0.07208 -0.53468,0.213506 -0.75507,0.391959 -0.67816,0.549109 -0.72443,0.932088 -1.05767,1.711807 -0.022,0.370813 -0.15631,0.752094 -0.0661,1.112438 0.27603,1.102579 1.19477,1.894938 2.08038,2.496902 0.50542,0.343545 1.08701,0.558853 1.63052,0.838279 0,0 -0.0624,-0.0501 -0.0624,-0.0501 v 0 c -0.34492,-0.188169 -0.74486,-0.299297 -1.03475,-0.56451 -0.2043,-0.18691 -0.28923,-0.476107 -0.3862,-0.735475 -0.35355,-0.945664 -0.24693,-0.992019 -0.19178,-1.988842 0.33713,-0.743614 0.34491,-1.050893 1.05197,-1.51629 0.20677,-0.136101 0.80658,-0.0368 0.69623,-0.258389 -0.25324,-0.508527 -0.86144,-0.748763 -1.34571,-1.045782 -0.21746,-0.133379 0.42315,0.318389 0.53421,0.548058 0.13378,0.276635 0.11272,0.604147 0.16908,0.906222 -0.008,0.345718 0.0425,0.697836 -0.0242,1.037156 -0.13237,0.673418 -0.69029,1.425104 -1.10235,1.969339 -0.0912,0.120398 -0.19352,0.232349 -0.2801,0.356081 -0.0567,0.08099 -0.0991,0.171077 -0.14864,0.256614 0,0 1.23545,0.76726 1.23545,0.76726 z" />
    <path
       style="fill:none;stroke:#000000;stroke-width:0.899999;stroke-dasharray:none;stroke-opacity:1"
       id="path1496"
       d="m 78.997801,100.32947 c 0.155451,0.0261 0.309354,0.0642 0.466352,0.0782 0.741529,0.0661 1.526476,-0.012 2.220471,-0.2944 0.818091,-0.332944 1.175702,-0.660855 1.892141,-1.179489 0.242361,-0.327051 0.537175,-0.621099 0.72708,-0.981152 0.195165,-0.370022 0.329457,-0.774903 0.415102,-1.184381 0.262488,-1.254963 0.01503,-2.590019 -0.624774,-3.695019 -0.194172,-0.335347 -0.469034,-0.616964 -0.70355,-0.925447 -1.263849,-0.953759 -1.615295,-1.327827 -3.583255,-1.836584 -0.419063,-0.108336 -0.872151,0.02943 -1.291177,0.137914 -1.021882,0.264565 -2.010725,0.857234 -2.810124,1.526162 -0.490075,0.410091 -0.903819,0.903602 -1.35573,1.355402 -0.366237,0.602438 -0.794848,1.171133 -1.098714,1.807313 -0.594561,1.244799 -0.987417,2.683859 -1.014873,4.07067 -0.01281,0.647375 0.02302,1.310431 0.205949,1.931561 0.177768,0.60362 0.425757,1.22424 0.858086,1.68145 0.495893,0.52445 1.219001,0.7732 1.828501,1.15979 1.229738,0.39819 2.410341,1.00672 3.689218,1.19457 1.899716,0.27907 4.152164,-0.60403 5.839967,-1.2463 2.332043,-0.88742 3.705448,-1.61032 5.939801,-2.69081 0,0 -0.06677,-0.0441 -0.06677,-0.0441 v 0 c -2.77068,1.33941 -3.182996,1.71621 -6.285788,2.44983 -3.894423,0.9208 -2.898378,0.42201 -6.541942,0.68652 -0.384186,0.0279 -0.758039,0.13741 -1.137057,0.20612 -0.60451,-0.35496 -1.3134,-0.57366 -1.813529,-1.06488 -0.460367,-0.45217 -0.75933,-1.06445 -0.973986,-1.67299 -0.217464,-0.6165 -0.287486,-1.28453 -0.299805,-1.938145 -0.02646,-1.403326 0.322395,-2.783718 0.963509,-4.027956 0.318228,-0.617598 0.780659,-1.149503 1.17099,-1.724255 1.154769,-1.050303 1.486393,-1.518624 2.891473,-2.177637 0.453334,-0.212625 0.935212,-0.37447 1.426726,-0.470064 0.425714,-0.0828 0.951613,0.198535 1.299681,-0.06019 0.194529,-0.144597 -0.664657,-0.609856 -0.422968,-0.591484 0.371826,0.02827 0.61646,0.419749 0.924692,0.629624 0.248946,0.298635 0.53899,0.567338 0.746844,0.895903 0.21816,0.344858 0.393862,0.720087 0.52079,1.107916 0.397053,1.213205 0.325888,2.436448 -0.290565,3.564959 -0.186148,0.340765 -0.463584,0.623041 -0.695375,0.934561 -0.30416,0.221467 -0.587071,0.475533 -0.912477,0.664406 -1.024003,0.594349 -2.215078,0.781079 -3.380824,0.755118 0,0 1.275913,0.967224 1.275913,0.967224 z" />
    <path
       style="fill:none;stroke:#000000;stroke-width:0.899999;stroke-dasharray:none;stroke-opacity:1"
       id="path1498"
       d="m 91.203673,91.892717 c -0.40721,0.138033 -0.797708,0.311266 -1.150758,0.559226 -0.08605,0.06044 -0.176696,0.117091 -0.249732,0.192743 -0.07239,0.07498 -0.12124,0.169545 -0.181861,0.254321 -7.94e-4,0.10954 -0.02519,0.22149 -0.0024,0.328625 0.06072,0.284636 0.244834,0.525553 0.49793,0.671682 0.806804,0.465826 1.594498,0.991603 2.472504,1.303107 0.409268,0.145204 1.854804,-0.33906 2.128967,-0.416242 0.430628,-0.178083 0.874565,-0.326887 1.291884,-0.534247 0.464492,-0.230801 0.914122,-0.493051 1.347885,-0.77743 1.040715,-0.6823 1.711918,-1.175488 2.328572,-2.304447 0.686766,-1.257329 0.613696,-1.896094 0.745876,-3.262061 -0.086,-0.48858 -0.0852,-1.000718 -0.25795,-1.465741 -0.312854,-0.84196 -1.005089,-1.639994 -1.809052,-2.048815 -0.984792,-0.500771 -1.976421,-1.076587 -3.066116,-1.258668 -0.972452,-0.162491 -2.967833,1.088406 -3.652705,1.452354 -0.605837,0.478896 -1.251915,0.910873 -1.817513,1.436687 -1.113263,1.034958 -2.251638,2.36976 -2.798307,3.819248 -0.556757,1.476242 -0.631372,3.289876 -0.427498,4.834606 0.09805,0.742953 0.355484,1.456021 0.533228,2.184033 0.35093,0.598154 0.616802,1.255159 1.052796,1.794465 0.401383,0.496495 0.883785,0.943131 1.428969,1.275379 2.014977,1.227978 2.966564,1.777288 5.154163,1.500638 2.04111,-0.25812 3.097739,-0.93007 4.973947,-1.787026 2.124598,-1.270545 3.265568,-1.829358 5.156218,-3.459475 0.79544,-0.685832 1.57861,-1.400233 2.23899,-2.216941 1.20193,-1.486466 2.29705,-3.621908 2.88368,-5.442368 0.28411,-0.881644 0.39656,-1.809639 0.59484,-2.714458 0.0392,-0.82717 0.16141,-1.654569 0.11762,-2.481511 -0.0694,-1.311341 -0.44427,-2.783062 -1.03846,-3.964932 -0.23262,-0.462706 -0.46988,-0.956924 -0.86715,-1.289161 -0.70392,-0.588688 -1.50661,-1.082776 -2.36306,-1.412251 -0.38745,-0.149053 -0.83011,0.01611 -1.24517,0.02416 -0.37663,0.218319 -0.80212,0.368449 -1.12988,0.65495 -0.75573,0.660588 -1.25431,1.654318 -1.56932,2.581151 -0.39232,1.154311 -0.493,2.049142 -0.41152,3.26526 0.0355,0.530024 0.16467,1.049586 0.247,1.574379 0.50765,1.550823 0.35409,1.22392 0.98695,2.639356 0.15293,0.342024 0.33382,0.671492 0.47738,1.017551 0.19366,0.46683 0.48063,1.204222 0.40948,1.743831 -0.035,0.265221 -0.19795,0.49707 -0.29692,0.745607 -0.2281,0.182099 -0.42277,0.416734 -0.68432,0.546296 -0.58316,0.288874 -1.3509,0.355483 -1.96166,0.09982 -0.0883,-0.03696 0.26399,-0.114287 0.21144,-0.194289 -0.46724,-0.711311 -1.13437,-1.273272 -1.629908,-1.965161 -0.529016,-0.738616 -0.957691,-1.544174 -1.436537,-2.316263 -0.37683,-0.792077 -0.804566,-1.561885 -1.130493,-2.37623 -0.313036,-0.782135 -0.591812,-1.582592 -0.782396,-2.403205 -0.322268,-1.387621 -0.40966,-2.883456 -0.153758,-4.292172 0.303387,-1.670111 0.6706,-2.016334 1.504532,-3.447349 0.486117,-0.508582 0.924674,-1.067318 1.458349,-1.525748 1.282771,-1.101908 2.740281,-1.910017 4.279371,-2.592766 1.76271,-0.781955 3.76138,-1.392873 5.61405,-1.894954 1.00771,-0.273095 2.02825,-0.49648 3.04237,-0.74472 1.62734,-0.375999 3.80459,-0.85688 5.43419,-1.314733 0.7149,-0.200859 1.43043,-0.405509 2.12602,-0.665454 0.90002,-0.336341 2.08505,-0.748019 2.54704,-1.732626 0.184,-0.39215 0.0987,-0.860708 0.14804,-1.291061 -0.17391,-0.492247 -0.25833,-1.025999 -0.52174,-1.47674 -0.82314,-1.408555 -1.88055,-2.154791 -3.08654,-3.219355 0,0 -0.0741,-0.03015 -0.0741,-0.03015 v 0 c 1.13608,1.001379 2.13684,1.579314 2.68598,3.021383 0.14627,0.384112 0.0786,0.818269 0.11796,1.227402 -0.16124,0.341802 -0.2575,0.722667 -0.48373,1.025406 -0.62204,0.832432 -1.53417,1.303676 -2.45859,1.713357 -0.6485,0.287401 -1.3186,0.525992 -1.99295,0.745972 -1.60159,0.522448 -3.66641,1.011091 -5.2794,1.418182 -1.01405,0.249719 -2.03069,0.489146 -3.04215,0.749157 -2.23174,0.573701 -3.68729,0.922102 -5.80203,1.793454 -1.49741,0.616985 -3.217326,1.474026 -4.48559,2.51691 -0.554919,0.456306 -0.996625,1.035058 -1.494938,1.552588 -0.265174,0.581211 -0.607066,1.133219 -0.795526,1.743636 -0.650668,2.107515 -0.361384,4.374322 0.171461,6.465171 0.206859,0.811712 0.451805,1.61581 0.752176,2.39776 0.309607,0.805987 0.716177,1.571302 1.074264,2.356953 0.235878,0.451657 1.758452,3.503038 2.260343,3.982881 0.80978,0.774211 1.76735,1.398477 2.75975,1.918378 0.5682,0.297672 1.58107,0.08637 2.10645,-0.189656 0.28845,-0.151548 0.50659,-0.409943 0.75989,-0.614913 0.12531,-0.273593 0.32666,-0.523915 0.37594,-0.82078 0.10276,-0.619035 -0.24047,-1.342903 -0.49001,-1.862423 -0.17259,-0.359341 -0.38717,-0.697127 -0.56942,-1.051669 -0.72222,-1.404937 -0.56454,-1.124624 -1.14423,-2.663645 -0.25222,-1.304126 -0.46109,-1.866281 -0.31248,-3.217555 0.15645,-1.422638 0.82748,-3.079158 1.95254,-4.019434 0.31296,-0.261551 0.7128,-0.396642 1.06919,-0.594963 0.37076,-0.0054 0.74449,0.03096 1.11229,-0.01619 0.0502,-0.0064 -0.13136,-0.153744 -0.10075,-0.113482 0.33785,0.444257 0.74182,0.843463 1.02266,1.325782 0.69288,1.189966 1.14484,2.66137 1.2681,4.025971 0.0751,0.831247 -0.0252,1.669072 -0.0378,2.503607 -0.55333,2.409846 -0.55908,3.197553 -1.81684,5.425421 -1.57123,2.783131 -3.8944,4.921113 -6.55214,6.64363 -0.86992,0.563808 -1.806265,1.017831 -2.709399,1.526746 -2.035794,0.796266 -3.043494,1.377841 -5.204134,1.554831 -0.697564,0.0571 -1.397016,-0.0979 -2.096807,-0.11017 -0.149601,-0.003 -0.316339,0.14361 -0.444048,0.0656 -1.588463,-0.969653 -1.664382,-1.497069 -2.638581,-3.043235 -0.516721,-1.908056 -0.864849,-2.510124 -0.648279,-4.546754 0.08475,-0.796999 0.259998,-1.594961 0.558995,-2.338594 0.563359,-1.401119 1.68909,-2.75827 2.800345,-3.750844 0.574786,-0.5134 1.239443,-0.91631 1.859164,-1.374465 0.655277,-0.298673 1.27786,-0.68321 1.965835,-0.89602 0.599784,-0.185534 1.303878,0.0011 1.861347,-0.287843 0.179911,-0.0932 -0.390507,-0.621421 -0.192953,-0.576413 0.438817,0.09998 0.7865,0.460065 1.099926,0.783053 0.895503,0.922824 0.815456,1.365917 1.092853,2.579552 -0.08553,1.385891 0.04167,1.905373 -0.693486,3.163853 -0.576699,0.987222 -1.397262,1.616131 -2.340448,2.210385 -0.436849,0.275233 -0.893231,0.521862 -1.36366,0.734666 -0.427599,0.193426 -0.8822,0.320535 -1.323303,0.480804 -0.405038,0.08256 -0.803921,0.205356 -1.215115,0.247679 -0.319169,0.03285 -1.075327,-0.323845 -0.962276,-0.02358 0.179504,0.476782 0.854064,0.555943 1.272254,0.846905 0.143999,0.10019 -0.315159,-0.161036 -0.449175,-0.274233 -0.09275,-0.07834 -0.161632,-0.183906 -0.219552,-0.290607 -0.04668,-0.086 -0.05993,-0.186304 -0.08989,-0.279456 -0.0092,-0.09559 -0.04073,-0.191672 -0.02748,-0.286787 0.02466,-0.17711 0.168849,-0.347914 0.274159,-0.477914 0.06227,-0.07687 0.131363,-0.147987 0.194654,-0.224015 0.266131,-0.319696 0.06696,-0.115604 0.322675,-0.361016 0,0 -0.951508,-0.621205 -0.951508,-0.621205 z" />
    <path
       style="fill:none;stroke:#000000;stroke-width:0.899999;stroke-dasharray:none;stroke-opacity:1"
       id="path1500"
       d="m 101.24158,52.846035 c -0.93071,0.401143 -1.867598,0.788244 -2.792126,1.203431 -3.858458,1.732754 -7.732318,3.58452 -11.271943,5.915679 -1.19407,0.786402 -2.374471,1.602486 -3.470772,2.520288 -1.02929,0.861703 -1.926572,1.869813 -2.889859,2.804718 -1.491316,2.169713 -3.07572,3.891503 -3.39113,6.656639 -0.321275,2.816567 0.593341,5.658326 2.40932,7.821467 2.533173,3.017449 4.696367,3.348302 8.236971,4.771914 7.128819,-0.440669 3.53986,0.307848 10.710849,-2.499188 0,0 -0.06643,-0.04458 -0.06643,-0.04458 v 0 c -7.23805,2.83124 -3.578074,2.129647 -10.937862,2.313458 -3.455847,-1.292516 -4.961781,-1.369576 -7.500979,-4.343783 -1.941425,-2.274025 -2.912211,-4.823164 -2.49754,-7.822652 0.334883,-2.422361 2.152118,-4.682046 3.429662,-6.61266 0.921419,-0.958826 1.777896,-1.984595 2.764258,-2.876476 2.21175,-1.99989 4.458155,-3.477353 7.068309,-4.912005 2.485117,-1.365928 5.094211,-2.49945 7.762444,-3.453308 1.027588,-0.36735 2.084718,-0.646136 3.127078,-0.969203 0,0 -0.69025,-0.473742 -0.69025,-0.473742 z" />
    <path
       style="fill:none;stroke:#000000;stroke-width:0.899999;stroke-dasharray:none;stroke-opacity:1"
       d="M 39.820693,33.93146 C 19.194728,55.263618 23.937937,103.26097 37.65891,75.27968 51.379884,47.29839 67.059174,39.59639 65.596796,62.954182 111.08329,59.635337 87.138344,26.492675 56.631749,32.123264 c -30.506594,5.630589 -6.25645,40.238121 -3.39527,44.461065 2.861181,4.222944 -65.591086,51.865531 2.072766,3.341736"
       id="path1556" />
  </g>
</svg>
