<?xml version="1.0" encoding="UTF-8" standalone="no"?>
<svg
   width="60mm"
   height="30mm"
   viewBox="0 0 60 30"
   version="1.1"
   id="svg8"
   inkscape:version="1.2.2 (b0a8486541, 2022-12-01)"
   sodipodi:docname="topic_sentence_example.svg"
   xmlns:inkscape="http://www.inkscape.org/namespaces/inkscape"
   xmlns:sodipodi="http://sodipodi.sourceforge.net/DTD/sodipodi-0.dtd"
   xmlns:xlink="http://www.w3.org/1999/xlink"
   xmlns="http://www.w3.org/2000/svg"
   xmlns:svg="http://www.w3.org/2000/svg"
   xmlns:rdf="http://www.w3.org/1999/02/22-rdf-syntax-ns#"
   xmlns:cc="http://creativecommons.org/ns#"
   xmlns:dc="http://purl.org/dc/elements/1.1/">
  <defs
     id="defs2">
    <rect
       x="161.79962"
       y="45.721177"
       width="56.500641"
       height="16.807002"
       id="rect1555" />
    <rect
       x="129.89256"
       y="36.160013"
       width="6.4587084"
       height="6.6334867"
       id="rect1549" />
    <rect
       x="5.5679292"
       y="6.8893874"
       width="60.21537"
       height="25.799201"
       id="rect1010" />
    <rect
       x="7.9586203"
       y="14.160769"
       width="17.571996"
       height="9.3399491"
       id="rect1004" />
    <rect
       x="34.049005"
       y="17.017312"
       width="26.366974"
       height="16.317433"
       id="rect994" />
    <linearGradient
       inkscape:collect="always"
       id="linearGradient883">
      <stop
         style="stop-color:#000000;stop-opacity:1;"
         offset="0"
         id="stop879" />
      <stop
         style="stop-color:#000000;stop-opacity:0;"
         offset="1"
         id="stop881" />
    </linearGradient>
    <rect
       x="10.10573"
       y="14.338153"
       width="77.620543"
       height="46.035463"
       id="rect798" />
    <radialGradient
       inkscape:collect="always"
       xlink:href="#linearGradient883"
       id="radialGradient885" />
  </defs>
  <sodipodi:namedview
     id="base"
     pagecolor="#ffffff"
     bordercolor="#666666"
     borderopacity="1.0"
     inkscape:pageopacity="0.0"
     inkscape:pageshadow="2"
     inkscape:zoom="9.5318548"
     inkscape:cx="86.709252"
     inkscape:cy="54.239181"
     inkscape:document-units="mm"
     inkscape:current-layer="layer1"
     showgrid="false"
     showborder="true"
     width="200mm"
     showguides="true"
     inkscape:guide-bbox="true"
     inkscape:window-width="3748"
     inkscape:window-height="1996"
     inkscape:window-x="40"
     inkscape:window-y="112"
     inkscape:window-maximized="0"
     inkscape:document-rotation="0"
     inkscape:showpageshadow="0"
     inkscape:pagecheckerboard="1"
     inkscape:deskcolor="#d1d1d1">
    <inkscape:grid
       type="xygrid"
       id="grid815"
       units="mm"
       spacingx="10"
       spacingy="10"
       empspacing="4"
       dotted="false" />
  </sodipodi:namedview>
  <metadata
     id="metadata5">
    <rdf:RDF>
      <cc:Work
         rdf:about="">
        <dc:format>image/svg+xml</dc:format>
        <dc:type
           rdf:resource="http://purl.org/dc/dcmitype/StillImage" />
        <dc:title />
      </cc:Work>
    </rdf:RDF>
  </metadata>
  <g
     inkscape:label="Layer 1"
     inkscape:groupmode="layer"
     id="layer1"
     transform="translate(0,-177)">
    <text
       xml:space="preserve"
       style="font-size:10.5833px;line-height:0;font-family:sans-serif;letter-spacing:0px;word-spacing:0px;stroke-width:0.264583"
       x="10.615892"
       y="199.10912"
       id="text143"><tspan
         sodipodi:role="line"
         id="tspan141"
         x="10.615892"
         y="199.10912"
         style="stroke-width:0.264583" /></text>
    <text
       xml:space="preserve"
       transform="matrix(0.26458333,0,0,0.26458333,0,177)"
       id="text796"
       style="white-space:pre;shape-inside:url(#rect798);fill:none;fill-opacity:0.0039324;stroke:#000000;stroke-width:10;font-size:5.3333334px" />
    <text
       xml:space="preserve"
       style="font-style:normal;font-variant:normal;font-weight:normal;font-stretch:normal;font-size:1.41111px;line-height:100;font-family:'FiraCode Nerd Font';-inkscape-font-specification:'FiraCode Nerd Font';fill:none;fill-opacity:0.0039324;stroke:url(#radialGradient885);stroke-width:0;stroke-dasharray:none"
       x="11.036098"
       y="182.57776"
       id="text804"><tspan
         sodipodi:role="line"
         id="tspan802"
         style="font-style:normal;font-variant:normal;font-weight:normal;font-stretch:normal;font-family:'FiraCode Nerd Font';-inkscape-font-specification:'FiraCode Nerd Font';stroke-width:0;stroke:url(#radialGradient885);stroke-dasharray:none"
         x="11.036098"
         y="182.57776" /></text>
    <text
       xml:space="preserve"
       transform="matrix(0.26458333,0,0,0.26458333,0,177)"
       id="text992"
       style="font-style:normal;font-variant:normal;font-weight:normal;font-stretch:normal;font-size:5.33333px;font-family:'FiraCode Nerd Font';-inkscape-font-specification:'FiraCode Nerd Font';white-space:pre;shape-inside:url(#rect994);fill:#000000;fill-opacity:1;stroke:#000000;stroke-width:0;stroke-dasharray:none" />
    <text
       xml:space="preserve"
       style="font-style:normal;font-variant:normal;font-weight:normal;font-stretch:normal;font-size:1.41111px;font-family:'FiraCode Nerd Font';-inkscape-font-specification:'FiraCode Nerd Font';fill:#000000;fill-opacity:1;stroke:#000000;stroke-width:0;stroke-dasharray:none"
       x="11.826054"
       y="183.82327"
       id="text1000"><tspan
         sodipodi:role="line"
         id="tspan998"
         style="stroke-width:0"
         x="11.826054"
         y="183.82327" /></text>
    <text
       xml:space="preserve"
       transform="matrix(0.49590291,0,0,0.50340168,2.0282723,181.49188)"
       id="text1002"
       style="font-style:normal;font-variant:normal;font-weight:normal;font-stretch:normal;font-size:5.33333px;font-family:'FiraCode Nerd Font';-inkscape-font-specification:'FiraCode Nerd Font';white-space:pre;shape-inside:url(#rect1004);fill:#000000;fill-opacity:1;stroke:#000000;stroke-width:0;stroke-dasharray:none"><tspan
         x="7.9589844"
         y="18.82682"
         id="tspan1026"> </tspan><tspan
         x="7.9589844"
         y="28.166664"
         id="tspan1030"><tspan
           dx="0 3.2820516 3.2820516 3.282052 3.2820511 3.2820511"
           id="tspan1028">health</tspan></tspan></text>
    <text
       xml:space="preserve"
       style="font-style:normal;font-variant:normal;font-weight:normal;font-stretch:normal;font-size:1.41111px;font-family:'FiraCode Nerd Font';-inkscape-font-specification:'FiraCode Nerd Font';fill:#000000;fill-opacity:1;stroke:#000000;stroke-width:0;stroke-dasharray:none"
       x="10.340242"
       y="181.5312"
       id="text1016"><tspan
         sodipodi:role="line"
         id="tspan1014"
         style="stroke-width:0"
         x="10.340242"
         y="181.5312" /><tspan
         sodipodi:role="line"
         style="stroke-width:0"
         id="tspan1018"
         x="10.340242"
         y="183.29509" /></text>
    <text
       xml:space="preserve"
       transform="matrix(0.49590291,0,0,0.58771581,2.0282732,180.8619)"
       id="text1008"
       style="font-style:normal;font-variant:normal;font-weight:normal;font-stretch:normal;font-size:5.33333px;font-family:'FiraCode Nerd Font';-inkscape-font-specification:'FiraCode Nerd Font';white-space:pre;shape-inside:url(#rect1010);fill:#000000;fill-opacity:1;stroke:#000000;stroke-width:0;stroke-dasharray:none"><tspan
         x="5.5683594"
         y="11.555336"
         id="tspan1032">1. health
</tspan><tspan
         x="5.5683594"
         y="18.221998"
         id="tspan1034">2. weather
</tspan><tspan
         x="5.5683594"
         y="24.88866"
         id="tspan1036">3. food and water</tspan></text>
    <path
       style="fill:none;fill-opacity:1;stroke:#000000;stroke-width:0;stroke-dasharray:none;stroke-opacity:1"
       d="m 24.957448,182.16293 c 0,-0.058 -0.02955,-0.12404 0,-0.17391 0.03014,-0.0509 0.09604,-0.0787 0.154586,-0.087 0.456531,-0.064 0.91821,-0.0836 1.377075,-0.1279 0.361133,-0.0349 0.718712,-0.10249 1.080141,-0.13419 0.593875,-0.0521 1.188765,-0.0929 1.783924,-0.12734 0.04281,-0.002 0.767939,0.002 0.818798,0 1.594469,-0.075 0.486809,-0.0661 1.407559,-0.0661 0.08951,0 0.825357,0 0.930783,0 0.191098,0 0.387752,-0.0457 0.573294,0 0.212683,0.0524 0.424426,0.12486 0.613542,0.2354 0.161105,0.0942 0.280379,0.24631 0.420841,0.36916 0.505926,0.4425 0.913128,0.87912 1.217615,1.48811 0.148246,0.2965 0.353262,0.85975 0.396121,1.18836 0.01125,0.0862 -0.0108,0.17457 0,0.26085 0.0058,0.0465 0.03061,0.0891 0.03865,0.13526 0.02664,0.15316 -0.04209,0.57462 0,0.69563 0.114718,0.3298 0.600652,0.76847 0.879192,0.96614 0.04821,0.0342 0.105392,0.0542 0.154583,0.087 0.03404,0.0227 0.304943,0.23566 0.396121,0.27052 0.05841,0.0223 0.123595,0.0209 0.183568,0.0386 0.136747,0.0404 0.269822,0.0923 0.405781,0.13526 0.155548,0.0491 0.317857,0.0765 0.473408,0.1256 0.161261,0.0509 0.434692,0.16256 0.627999,0.18357 0.26479,0.0288 0.549373,-0.0456 0.811557,0 0.182927,0.0318 0.367601,0.10604 0.541046,0.17391 0.07407,0.029 0.146754,0.0618 0.222213,0.087 0.02445,0.008 0.06683,-0.0235 0.07729,0 0.02355,0.053 0,0.11594 0,0.17391 0,0.0741 0.03926,0.1594 0,0.22221 -0.03274,0.0524 -0.270852,0.10774 -0.338148,0.1256 -0.322776,0.0856 -1.368111,0.25116 -1.584479,0.57003 -0.364826,0.53765 -0.251195,1.28301 -0.251195,1.89364 0,0.81752 -0.01635,1.63667 0,2.45401 0.0113,0.56567 0.213987,1.09931 0.260858,1.66177 0.03023,0.36276 0,0.73698 0,1.1014 0,0.19001 0,0.38002 0,0.57003 0,0.087 0.02029,0.17631 0,0.26086 -0.04043,0.16845 -0.237239,0.37057 -0.338156,0.48307 -0.120216,0.13401 -0.223941,0.287 -0.367134,0.39612 -0.292716,0.22305 -1.365551,0.30578 -1.763418,0.37324 -0.338035,0.0573 -0.662112,0.18568 -1.001461,0.23461 -0.370576,0.0534 -0.765355,-0.0278 -1.139698,0 -0.164767,0.0122 -0.329142,0.0304 -0.492837,0.0528 -0.291574,0.0399 -0.521534,0.13018 -0.822288,0.13018"
       id="path1291" />
    <text
       xml:space="preserve"
       transform="matrix(4.8485757,0,0,3.6435444,-603.04375,49.251668)"
       id="text1547"
       style="font-style:normal;font-variant:normal;font-weight:normal;font-stretch:normal;font-size:5.33333px;font-family:'FiraCode Nerd Font';-inkscape-font-specification:'FiraCode Nerd Font';white-space:pre;shape-inside:url(#rect1549);shape-padding:0;fill:#000000;fill-opacity:1;stroke:#000000;stroke-width:0;stroke-dasharray:none;stroke-opacity:1"><tspan
         x="129.89258"
         y="40.82682"
         id="tspan1038">}</tspan></text>
    <text
       xml:space="preserve"
       transform="matrix(0.333294,0,0,0.41520605,-13.278445,170.92659)"
       id="text1553"
       style="font-style:normal;font-variant:normal;font-weight:normal;font-stretch:normal;font-size:5.33333px;font-family:'FiraCode Nerd Font';-inkscape-font-specification:'FiraCode Nerd Font';white-space:pre;shape-inside:url(#rect1555);fill:#000000;fill-opacity:1;stroke:#000000;stroke-width:0;stroke-dasharray:none;stroke-opacity:1"><tspan
         x="161.79883"
         y="50.387367"
         id="tspan1040">impact on humans</tspan></text>
  </g>
</svg>
